<?xml version="1.0" encoding="UTF-8" standalone="no"?>
<!DOCTYPE svg PUBLIC "-//W3C//DTD SVG 1.1//EN"
 "http://www.w3.org/Graphics/SVG/1.1/DTD/svg11.dtd">
<!-- Generated by graphviz version 2.36.0 (20140111.2315)
 -->
<!-- Title: controllers_diagram Pages: 1 -->
<svg width="1770pt" height="1654pt"
 viewBox="0.00 0.00 1770.00 1654.11" xmlns="http://www.w3.org/2000/svg" xmlns:xlink="http://www.w3.org/1999/xlink">
<g id="graph0" class="graph" transform="scale(1 1) rotate(0) translate(4 1650.11)">
<title>controllers_diagram</title>
<polygon fill="none" stroke="none" points="-4,4 -4,-1650.11 1766,-1650.11 1766,4 -4,4"/>
<!-- _diagram_info -->
<g id="node1" class="node"><title>_diagram_info</title>
<text text-anchor="start" x="1556" y="-1353.6" font-family="Times,serif" font-size="13.00">Controllers diagram</text>
<text text-anchor="start" x="1556" y="-1339.6" font-family="Times,serif" font-size="13.00">Date: May 08 2016 &#45; 16:14</text>
<text text-anchor="start" x="1556" y="-1325.6" font-family="Times,serif" font-size="13.00">Migration version: 20160503223424</text>
<text text-anchor="start" x="1556" y="-1311.6" font-family="Times,serif" font-size="13.00">Generated by RailRoady 1.4.2</text>
<text text-anchor="start" x="1556" y="-1297.6" font-family="Times,serif" font-size="13.00">http://railroady.prestonlee.com</text>
</g>
<!-- ApplicationController -->
<g id="node2" class="node"><title>ApplicationController</title>
<path fill="none" stroke="black" d="M765.966,-898.362C765.966,-898.362 893.966,-898.362 893.966,-898.362 899.966,-898.362 905.966,-904.362 905.966,-910.362 905.966,-910.362 905.966,-1008.36 905.966,-1008.36 905.966,-1014.36 899.966,-1020.36 893.966,-1020.36 893.966,-1020.36 765.966,-1020.36 765.966,-1020.36 759.966,-1020.36 753.966,-1014.36 753.966,-1008.36 753.966,-1008.36 753.966,-910.362 753.966,-910.362 753.966,-904.362 759.966,-898.362 765.966,-898.362"/>
<text text-anchor="middle" x="829.966" y="-1005.16" font-family="Times,serif" font-size="14.00">ApplicationController</text>
<polyline fill="none" stroke="black" points="753.966,-997.362 905.966,-997.362 "/>
<text text-anchor="start" x="761.966" y="-982.162" font-family="Times,serif" font-size="14.00">ensure_signup_complete</text>
<text text-anchor="start" x="761.966" y="-967.162" font-family="Times,serif" font-size="14.00">set_categories</text>
<polyline fill="none" stroke="black" points="753.966,-959.362 905.966,-959.362 "/>
<text text-anchor="start" x="761.966" y="-944.162" font-family="Times,serif" font-size="14.00">set_user_language</text>
<text text-anchor="start" x="761.966" y="-929.162" font-family="Times,serif" font-size="14.00">track_action</text>
<polyline fill="none" stroke="black" points="753.966,-921.362 905.966,-921.362 "/>
<text text-anchor="start" x="761.966" y="-906.162" font-family="Times,serif" font-size="14.00">_layout</text>
</g>
<!-- ArticlesController -->
<g id="node3" class="node"><title>ArticlesController</title>
<path fill="none" stroke="black" d="M452.962,-625.673C452.962,-625.673 578.962,-625.673 578.962,-625.673 584.962,-625.673 590.962,-631.673 590.962,-637.673 590.962,-637.673 590.962,-931.673 590.962,-931.673 590.962,-937.673 584.962,-943.673 578.962,-943.673 578.962,-943.673 452.962,-943.673 452.962,-943.673 446.962,-943.673 440.962,-937.673 440.962,-931.673 440.962,-931.673 440.962,-637.673 440.962,-637.673 440.962,-631.673 446.962,-625.673 452.962,-625.673"/>
<text text-anchor="middle" x="515.962" y="-928.473" font-family="Times,serif" font-size="14.00">ArticlesController</text>
<polyline fill="none" stroke="black" points="440.962,-920.673 590.962,-920.673 "/>
<text text-anchor="start" x="448.962" y="-905.473" font-family="Times,serif" font-size="14.00">autocomplete_tag_name</text>
<text text-anchor="start" x="448.962" y="-890.473" font-family="Times,serif" font-size="14.00">create</text>
<text text-anchor="start" x="448.962" y="-875.473" font-family="Times,serif" font-size="14.00">destroy</text>
<text text-anchor="start" x="448.962" y="-860.473" font-family="Times,serif" font-size="14.00">edit</text>
<text text-anchor="start" x="448.962" y="-845.473" font-family="Times,serif" font-size="14.00">get_autocomplete_items</text>
<text text-anchor="start" x="448.962" y="-830.473" font-family="Times,serif" font-size="14.00">get_autocomplete_order</text>
<text text-anchor="start" x="448.962" y="-815.473" font-family="Times,serif" font-size="14.00">get_prefix</text>
<text text-anchor="start" x="448.962" y="-800.473" font-family="Times,serif" font-size="14.00">index</text>
<text text-anchor="start" x="448.962" y="-785.473" font-family="Times,serif" font-size="14.00">new</text>
<text text-anchor="start" x="448.962" y="-770.473" font-family="Times,serif" font-size="14.00">show</text>
<text text-anchor="start" x="448.962" y="-755.473" font-family="Times,serif" font-size="14.00">sort_column</text>
<text text-anchor="start" x="448.962" y="-740.473" font-family="Times,serif" font-size="14.00">sort_direction</text>
<text text-anchor="start" x="448.962" y="-725.473" font-family="Times,serif" font-size="14.00">suggested</text>
<text text-anchor="start" x="448.962" y="-710.473" font-family="Times,serif" font-size="14.00">update</text>
<polyline fill="none" stroke="black" points="440.962,-702.673 590.962,-702.673 "/>
<polyline fill="none" stroke="black" points="440.962,-678.673 590.962,-678.673 "/>
<text text-anchor="start" x="448.962" y="-663.473" font-family="Times,serif" font-size="14.00">_layout</text>
<text text-anchor="start" x="448.962" y="-648.473" font-family="Times,serif" font-size="14.00">article_params</text>
<text text-anchor="start" x="448.962" y="-633.473" font-family="Times,serif" font-size="14.00">set_article</text>
</g>
<!-- ApplicationController&#45;&gt;ArticlesController -->
<g id="edge1" class="edge"><title>ApplicationController&#45;&gt;ArticlesController</title>
<path fill="none" stroke="black" d="M753.954,-917.075C704.494,-889.559 640.267,-853.827 591.002,-826.42"/>
</g>
<!-- CategoriesController -->
<g id="node4" class="node"><title>CategoriesController</title>
<path fill="none" stroke="black" d="M62.8536,-733.456C62.8536,-733.456 168.854,-733.456 168.854,-733.456 174.854,-733.456 180.854,-739.456 180.854,-745.456 180.854,-745.456 180.854,-934.456 180.854,-934.456 180.854,-940.456 174.854,-946.456 168.854,-946.456 168.854,-946.456 62.8536,-946.456 62.8536,-946.456 56.8536,-946.456 50.8536,-940.456 50.8536,-934.456 50.8536,-934.456 50.8536,-745.456 50.8536,-745.456 50.8536,-739.456 56.8536,-733.456 62.8536,-733.456"/>
<text text-anchor="middle" x="115.854" y="-931.256" font-family="Times,serif" font-size="14.00">CategoriesController</text>
<polyline fill="none" stroke="black" points="50.8536,-923.456 180.854,-923.456 "/>
<text text-anchor="start" x="58.8536" y="-908.256" font-family="Times,serif" font-size="14.00">create</text>
<text text-anchor="start" x="58.8536" y="-893.256" font-family="Times,serif" font-size="14.00">destroy</text>
<text text-anchor="start" x="58.8536" y="-878.256" font-family="Times,serif" font-size="14.00">edit</text>
<text text-anchor="start" x="58.8536" y="-863.256" font-family="Times,serif" font-size="14.00">index</text>
<text text-anchor="start" x="58.8536" y="-848.256" font-family="Times,serif" font-size="14.00">new</text>
<text text-anchor="start" x="58.8536" y="-833.256" font-family="Times,serif" font-size="14.00">show</text>
<text text-anchor="start" x="58.8536" y="-818.256" font-family="Times,serif" font-size="14.00">update</text>
<polyline fill="none" stroke="black" points="50.8536,-810.456 180.854,-810.456 "/>
<polyline fill="none" stroke="black" points="50.8536,-786.456 180.854,-786.456 "/>
<text text-anchor="start" x="58.8536" y="-771.256" font-family="Times,serif" font-size="14.00">_layout</text>
<text text-anchor="start" x="58.8536" y="-756.256" font-family="Times,serif" font-size="14.00">category_params</text>
<text text-anchor="start" x="58.8536" y="-741.256" font-family="Times,serif" font-size="14.00">set_category</text>
</g>
<!-- ApplicationController&#45;&gt;CategoriesController -->
<g id="edge2" class="edge"><title>ApplicationController&#45;&gt;CategoriesController</title>
<path fill="none" stroke="black" d="M753.74,-963.387C674.217,-966.086 546.248,-966.194 437.762,-946.873 346.159,-930.558 245.007,-893.655 180.987,-867.792"/>
</g>
<!-- UsersController -->
<g id="node5" class="node"><title>UsersController</title>
<path fill="none" stroke="black" d="M435.816,-1066.56C435.816,-1066.56 514.816,-1066.56 514.816,-1066.56 520.816,-1066.56 526.816,-1072.56 526.816,-1078.56 526.816,-1078.56 526.816,-1237.56 526.816,-1237.56 526.816,-1243.56 520.816,-1249.56 514.816,-1249.56 514.816,-1249.56 435.816,-1249.56 435.816,-1249.56 429.816,-1249.56 423.816,-1243.56 423.816,-1237.56 423.816,-1237.56 423.816,-1078.56 423.816,-1078.56 423.816,-1072.56 429.816,-1066.56 435.816,-1066.56"/>
<text text-anchor="middle" x="475.316" y="-1234.36" font-family="Times,serif" font-size="14.00">UsersController</text>
<polyline fill="none" stroke="black" points="423.816,-1226.56 526.816,-1226.56 "/>
<text text-anchor="start" x="431.816" y="-1211.36" font-family="Times,serif" font-size="14.00">create</text>
<text text-anchor="start" x="431.816" y="-1196.36" font-family="Times,serif" font-size="14.00">destroy</text>
<text text-anchor="start" x="431.816" y="-1181.36" font-family="Times,serif" font-size="14.00">finish_signup</text>
<text text-anchor="start" x="431.816" y="-1166.36" font-family="Times,serif" font-size="14.00">index</text>
<text text-anchor="start" x="431.816" y="-1151.36" font-family="Times,serif" font-size="14.00">show</text>
<polyline fill="none" stroke="black" points="423.816,-1143.56 526.816,-1143.56 "/>
<polyline fill="none" stroke="black" points="423.816,-1119.56 526.816,-1119.56 "/>
<text text-anchor="start" x="431.816" y="-1104.36" font-family="Times,serif" font-size="14.00">_layout</text>
<text text-anchor="start" x="431.816" y="-1089.36" font-family="Times,serif" font-size="14.00">set_user</text>
<text text-anchor="start" x="431.816" y="-1074.36" font-family="Times,serif" font-size="14.00">user_params</text>
</g>
<!-- ApplicationController&#45;&gt;UsersController -->
<g id="edge3" class="edge"><title>ApplicationController&#45;&gt;UsersController</title>
<path fill="none" stroke="black" d="M753.884,-1001.99C685.396,-1040.36 586.606,-1095.71 526.927,-1129.15"/>
</g>
<!-- HelloWorldController -->
<g id="node12" class="node"><title>HelloWorldController</title>
<path fill="none" stroke="black" d="M12,-449.371C12,-449.371 125,-449.371 125,-449.371 131,-449.371 137,-455.371 137,-461.371 137,-461.371 137,-530.371 137,-530.371 137,-536.371 131,-542.371 125,-542.371 125,-542.371 12,-542.371 12,-542.371 6,-542.371 -1.13687e-13,-536.371 -1.13687e-13,-530.371 -1.13687e-13,-530.371 -1.13687e-13,-461.371 -1.13687e-13,-461.371 -1.13687e-13,-455.371 6,-449.371 12,-449.371"/>
<text text-anchor="middle" x="68.5" y="-527.171" font-family="Times,serif" font-size="14.00">HelloWorldController</text>
<polyline fill="none" stroke="black" points="-1.13687e-13,-519.371 137,-519.371 "/>
<text text-anchor="start" x="8" y="-504.171" font-family="Times,serif" font-size="14.00">index</text>
<polyline fill="none" stroke="black" points="-1.13687e-13,-496.371 137,-496.371 "/>
<polyline fill="none" stroke="black" points="-1.13687e-13,-472.371 137,-472.371 "/>
<text text-anchor="start" x="8" y="-457.171" font-family="Times,serif" font-size="14.00">_layout</text>
</g>
<!-- ApplicationController&#45;&gt;HelloWorldController -->
<g id="edge10" class="edge"><title>ApplicationController&#45;&gt;HelloWorldController</title>
<path fill="none" stroke="black" d="M783.551,-897.963C778.943,-891.702 774.365,-885.416 770.018,-879.348 689.441,-766.876 713.513,-692.46 594.162,-622.473 550.836,-597.066 418.135,-612.821 369.066,-602.105 287.283,-584.247 197.22,-550.408 137.209,-525.705"/>
</g>
<!-- CommentsController -->
<g id="node13" class="node"><title>CommentsController</title>
<path fill="none" stroke="black" d="M14.9499,-1103.97C14.9499,-1103.97 122.95,-1103.97 122.95,-1103.97 128.95,-1103.97 134.95,-1109.97 134.95,-1115.97 134.95,-1115.97 134.95,-1244.97 134.95,-1244.97 134.95,-1250.97 128.95,-1256.97 122.95,-1256.97 122.95,-1256.97 14.9499,-1256.97 14.9499,-1256.97 8.9499,-1256.97 2.9499,-1250.97 2.9499,-1244.97 2.9499,-1244.97 2.9499,-1115.97 2.9499,-1115.97 2.9499,-1109.97 8.9499,-1103.97 14.9499,-1103.97"/>
<text text-anchor="middle" x="68.9499" y="-1241.77" font-family="Times,serif" font-size="14.00">CommentsController</text>
<polyline fill="none" stroke="black" points="2.9499,-1233.97 134.95,-1233.97 "/>
<text text-anchor="start" x="10.9499" y="-1218.77" font-family="Times,serif" font-size="14.00">comment_params</text>
<text text-anchor="start" x="10.9499" y="-1203.77" font-family="Times,serif" font-size="14.00">create</text>
<text text-anchor="start" x="10.9499" y="-1188.77" font-family="Times,serif" font-size="14.00">new</text>
<text text-anchor="start" x="10.9499" y="-1173.77" font-family="Times,serif" font-size="14.00">set_article</text>
<text text-anchor="start" x="10.9499" y="-1158.77" font-family="Times,serif" font-size="14.00">set_parent</text>
<polyline fill="none" stroke="black" points="2.9499,-1150.97 134.95,-1150.97 "/>
<polyline fill="none" stroke="black" points="2.9499,-1126.97 134.95,-1126.97 "/>
<text text-anchor="start" x="10.9499" y="-1111.77" font-family="Times,serif" font-size="14.00">_layout</text>
</g>
<!-- ApplicationController&#45;&gt;CommentsController -->
<g id="edge11" class="edge"><title>ApplicationController&#45;&gt;CommentsController</title>
<path fill="none" stroke="black" d="M753.695,-976.987C671.143,-996.47 535.838,-1029.59 420.616,-1063.36 320.27,-1092.78 205.62,-1132.04 135.258,-1156.79"/>
</g>
<!-- FeedsController -->
<g id="node14" class="node"><title>FeedsController</title>
<path fill="none" stroke="black" d="M793.643,-1204.88C793.643,-1204.88 873.643,-1204.88 873.643,-1204.88 879.643,-1204.88 885.643,-1210.88 885.643,-1216.88 885.643,-1216.88 885.643,-1300.88 885.643,-1300.88 885.643,-1306.88 879.643,-1312.88 873.643,-1312.88 873.643,-1312.88 793.643,-1312.88 793.643,-1312.88 787.643,-1312.88 781.643,-1306.88 781.643,-1300.88 781.643,-1300.88 781.643,-1216.88 781.643,-1216.88 781.643,-1210.88 787.643,-1204.88 793.643,-1204.88"/>
<text text-anchor="middle" x="833.643" y="-1297.68" font-family="Times,serif" font-size="14.00">FeedsController</text>
<polyline fill="none" stroke="black" points="781.643,-1289.88 885.643,-1289.88 "/>
<text text-anchor="start" x="789.643" y="-1274.68" font-family="Times,serif" font-size="14.00">index</text>
<text text-anchor="start" x="789.643" y="-1259.68" font-family="Times,serif" font-size="14.00">show</text>
<polyline fill="none" stroke="black" points="781.643,-1251.88 885.643,-1251.88 "/>
<polyline fill="none" stroke="black" points="781.643,-1227.88 885.643,-1227.88 "/>
<text text-anchor="start" x="789.643" y="-1212.68" font-family="Times,serif" font-size="14.00">_layout</text>
</g>
<!-- ApplicationController&#45;&gt;FeedsController -->
<g id="edge12" class="edge"><title>ApplicationController&#45;&gt;FeedsController</title>
<path fill="none" stroke="black" d="M830.719,-1020.7C831.383,-1074.78 832.341,-1152.84 832.977,-1204.67"/>
</g>
<!-- DeviseController -->
<g id="node21" class="node"><title>DeviseController</title>
<path fill="none" stroke="black" d="M785.218,-499.148C785.218,-499.148 952.218,-499.148 952.218,-499.148 958.218,-499.148 964.218,-505.148 964.218,-511.148 964.218,-511.148 964.218,-864.148 964.218,-864.148 964.218,-870.148 958.218,-876.148 952.218,-876.148 952.218,-876.148 785.218,-876.148 785.218,-876.148 779.218,-876.148 773.218,-870.148 773.218,-864.148 773.218,-864.148 773.218,-511.148 773.218,-511.148 773.218,-505.148 779.218,-499.148 785.218,-499.148"/>
<text text-anchor="middle" x="868.718" y="-860.948" font-family="Times,serif" font-size="14.00">DeviseController</text>
<polyline fill="none" stroke="black" points="773.218,-853.148 964.218,-853.148 "/>
<text text-anchor="start" x="781.218" y="-837.948" font-family="Times,serif" font-size="14.00">_prefixes</text>
<polyline fill="none" stroke="black" points="773.218,-830.148 964.218,-830.148 "/>
<text text-anchor="start" x="781.218" y="-814.948" font-family="Times,serif" font-size="14.00">assert_is_devise_resource!</text>
<text text-anchor="start" x="781.218" y="-799.948" font-family="Times,serif" font-size="14.00">clean_up_passwords</text>
<text text-anchor="start" x="781.218" y="-784.948" font-family="Times,serif" font-size="14.00">devise_i18n_options</text>
<text text-anchor="start" x="781.218" y="-769.948" font-family="Times,serif" font-size="14.00">devise_mapping</text>
<text text-anchor="start" x="781.218" y="-754.948" font-family="Times,serif" font-size="14.00">find_message</text>
<text text-anchor="start" x="781.218" y="-739.948" font-family="Times,serif" font-size="14.00">navigational_formats</text>
<text text-anchor="start" x="781.218" y="-724.948" font-family="Times,serif" font-size="14.00">require_no_authentication</text>
<text text-anchor="start" x="781.218" y="-709.948" font-family="Times,serif" font-size="14.00">resource</text>
<text text-anchor="start" x="781.218" y="-694.948" font-family="Times,serif" font-size="14.00">resource=</text>
<text text-anchor="start" x="781.218" y="-679.948" font-family="Times,serif" font-size="14.00">resource_class</text>
<text text-anchor="start" x="781.218" y="-664.948" font-family="Times,serif" font-size="14.00">resource_name</text>
<text text-anchor="start" x="781.218" y="-649.948" font-family="Times,serif" font-size="14.00">resource_params</text>
<text text-anchor="start" x="781.218" y="-634.948" font-family="Times,serif" font-size="14.00">respond_with_navigational</text>
<text text-anchor="start" x="781.218" y="-619.948" font-family="Times,serif" font-size="14.00">scope_name</text>
<text text-anchor="start" x="781.218" y="-604.948" font-family="Times,serif" font-size="14.00">set_flash_message</text>
<text text-anchor="start" x="781.218" y="-589.948" font-family="Times,serif" font-size="14.00">set_minimum_password_length</text>
<text text-anchor="start" x="781.218" y="-574.948" font-family="Times,serif" font-size="14.00">signed_in_resource</text>
<text text-anchor="start" x="781.218" y="-559.948" font-family="Times,serif" font-size="14.00">successfully_sent?</text>
<text text-anchor="start" x="781.218" y="-544.948" font-family="Times,serif" font-size="14.00">translation_scope</text>
<text text-anchor="start" x="781.218" y="-529.948" font-family="Times,serif" font-size="14.00">unknown_action!</text>
<polyline fill="none" stroke="black" points="773.218,-522.148 964.218,-522.148 "/>
<text text-anchor="start" x="781.218" y="-506.948" font-family="Times,serif" font-size="14.00">_layout</text>
</g>
<!-- ApplicationController&#45;&gt;DeviseController -->
<g id="edge19" class="edge"><title>ApplicationController&#45;&gt;DeviseController</title>
<path fill="none" stroke="black" d="M838.711,-898.045C839.693,-891.158 840.728,-883.901 841.8,-876.389"/>
</g>
<!-- Ahoy::BaseController -->
<g id="node23" class="node"><title>Ahoy::BaseController</title>
<path fill="none" stroke="black" d="M548.658,-1539.64C548.658,-1539.64 660.658,-1539.64 660.658,-1539.64 666.658,-1539.64 672.658,-1545.64 672.658,-1551.64 672.658,-1551.64 672.658,-1620.64 672.658,-1620.64 672.658,-1626.64 666.658,-1632.64 660.658,-1632.64 660.658,-1632.64 548.658,-1632.64 548.658,-1632.64 542.658,-1632.64 536.658,-1626.64 536.658,-1620.64 536.658,-1620.64 536.658,-1551.64 536.658,-1551.64 536.658,-1545.64 542.658,-1539.64 548.658,-1539.64"/>
<text text-anchor="middle" x="604.658" y="-1617.44" font-family="Times,serif" font-size="14.00">Ahoy::BaseController</text>
<polyline fill="none" stroke="black" points="536.658,-1609.64 672.658,-1609.64 "/>
<text text-anchor="start" x="544.658" y="-1594.44" font-family="Times,serif" font-size="14.00">ahoy</text>
<polyline fill="none" stroke="black" points="536.658,-1586.64 672.658,-1586.64 "/>
<polyline fill="none" stroke="black" points="536.658,-1562.64 672.658,-1562.64 "/>
<text text-anchor="start" x="544.658" y="-1547.44" font-family="Times,serif" font-size="14.00">_layout</text>
</g>
<!-- ApplicationController&#45;&gt;Ahoy::BaseController -->
<g id="edge21" class="edge"><title>ApplicationController&#45;&gt;Ahoy::BaseController</title>
<path fill="none" stroke="black" d="M807.952,-1020.6C762.996,-1145.66 661.507,-1428 621.41,-1539.54"/>
</g>
<!-- Users::SessionsController -->
<g id="node6" class="node"><title>Users::SessionsController</title>
<path fill="none" stroke="black" d="M1514.6,-1005.7C1514.6,-1005.7 1647.6,-1005.7 1647.6,-1005.7 1653.6,-1005.7 1659.6,-1011.7 1659.6,-1017.7 1659.6,-1017.7 1659.6,-1087.7 1659.6,-1087.7 1659.6,-1093.7 1653.6,-1099.7 1647.6,-1099.7 1647.6,-1099.7 1514.6,-1099.7 1514.6,-1099.7 1508.6,-1099.7 1502.6,-1093.7 1502.6,-1087.7 1502.6,-1087.7 1502.6,-1017.7 1502.6,-1017.7 1502.6,-1011.7 1508.6,-1005.7 1514.6,-1005.7"/>
<text text-anchor="middle" x="1581.1" y="-1084.5" font-family="Times,serif" font-size="14.00">Users::SessionsController</text>
<polyline fill="none" stroke="black" points="1502.6,-1076.7 1659.6,-1076.7 "/>
<polyline fill="none" stroke="black" points="1502.6,-1052.7 1659.6,-1052.7 "/>
<polyline fill="none" stroke="black" points="1502.6,-1028.7 1659.6,-1028.7 "/>
<text text-anchor="start" x="1510.6" y="-1013.5" font-family="Times,serif" font-size="14.00">_layout</text>
</g>
<!-- Users::PasswordsController -->
<g id="node7" class="node"><title>Users::PasswordsController</title>
<path fill="none" stroke="black" d="M1470.29,-1496.78C1470.29,-1496.78 1613.29,-1496.78 1613.29,-1496.78 1619.29,-1496.78 1625.29,-1502.78 1625.29,-1508.78 1625.29,-1508.78 1625.29,-1578.78 1625.29,-1578.78 1625.29,-1584.78 1619.29,-1590.78 1613.29,-1590.78 1613.29,-1590.78 1470.29,-1590.78 1470.29,-1590.78 1464.29,-1590.78 1458.29,-1584.78 1458.29,-1578.78 1458.29,-1578.78 1458.29,-1508.78 1458.29,-1508.78 1458.29,-1502.78 1464.29,-1496.78 1470.29,-1496.78"/>
<text text-anchor="middle" x="1541.79" y="-1575.58" font-family="Times,serif" font-size="14.00">Users::PasswordsController</text>
<polyline fill="none" stroke="black" points="1458.29,-1567.78 1625.29,-1567.78 "/>
<polyline fill="none" stroke="black" points="1458.29,-1543.78 1625.29,-1543.78 "/>
<polyline fill="none" stroke="black" points="1458.29,-1519.78 1625.29,-1519.78 "/>
<text text-anchor="start" x="1466.29" y="-1504.58" font-family="Times,serif" font-size="14.00">_layout</text>
</g>
<!-- Users::ConfirmationsController -->
<g id="node8" class="node"><title>Users::ConfirmationsController</title>
<path fill="none" stroke="black" d="M529.387,-0.5C529.387,-0.5 694.387,-0.5 694.387,-0.5 700.387,-0.5 706.387,-6.5 706.387,-12.5 706.387,-12.5 706.387,-82.5 706.387,-82.5 706.387,-88.5 700.387,-94.5 694.387,-94.5 694.387,-94.5 529.387,-94.5 529.387,-94.5 523.387,-94.5 517.387,-88.5 517.387,-82.5 517.387,-82.5 517.387,-12.5 517.387,-12.5 517.387,-6.5 523.387,-0.5 529.387,-0.5"/>
<text text-anchor="middle" x="611.887" y="-79.3" font-family="Times,serif" font-size="14.00">Users::ConfirmationsController</text>
<polyline fill="none" stroke="black" points="517.387,-71.5 706.387,-71.5 "/>
<polyline fill="none" stroke="black" points="517.387,-47.5 706.387,-47.5 "/>
<polyline fill="none" stroke="black" points="517.387,-23.5 706.387,-23.5 "/>
<text text-anchor="start" x="525.387" y="-8.3" font-family="Times,serif" font-size="14.00">_layout</text>
</g>
<!-- Users::OmniauthCallbacksController -->
<g id="node9" class="node"><title>Users::OmniauthCallbacksController</title>
<path fill="none" stroke="black" d="M1446.12,-36.2396C1446.12,-36.2396 1640.12,-36.2396 1640.12,-36.2396 1646.12,-36.2396 1652.12,-42.2396 1652.12,-48.2396 1652.12,-48.2396 1652.12,-162.24 1652.12,-162.24 1652.12,-168.24 1646.12,-174.24 1640.12,-174.24 1640.12,-174.24 1446.12,-174.24 1446.12,-174.24 1440.12,-174.24 1434.12,-168.24 1434.12,-162.24 1434.12,-162.24 1434.12,-48.2396 1434.12,-48.2396 1434.12,-42.2396 1440.12,-36.2396 1446.12,-36.2396"/>
<text text-anchor="middle" x="1543.12" y="-159.04" font-family="Times,serif" font-size="14.00">Users::OmniauthCallbacksController</text>
<polyline fill="none" stroke="black" points="1434.12,-151.24 1652.12,-151.24 "/>
<text text-anchor="start" x="1442.12" y="-136.04" font-family="Times,serif" font-size="14.00">after_sign_in_path_for</text>
<text text-anchor="start" x="1442.12" y="-121.04" font-family="Times,serif" font-size="14.00">facebook</text>
<text text-anchor="start" x="1442.12" y="-106.04" font-family="Times,serif" font-size="14.00">linkedin</text>
<text text-anchor="start" x="1442.12" y="-91.0396" font-family="Times,serif" font-size="14.00">twitter</text>
<polyline fill="none" stroke="black" points="1434.12,-83.2396 1652.12,-83.2396 "/>
<polyline fill="none" stroke="black" points="1434.12,-59.2396 1652.12,-59.2396 "/>
<text text-anchor="start" x="1442.12" y="-44.0396" font-family="Times,serif" font-size="14.00">_layout</text>
</g>
<!-- Users::RegistrationsController -->
<g id="node10" class="node"><title>Users::RegistrationsController</title>
<path fill="none" stroke="black" d="M33.8563,-20.3078C33.8563,-20.3078 215.856,-20.3078 215.856,-20.3078 221.856,-20.3078 227.856,-26.3078 227.856,-32.3078 227.856,-32.3078 227.856,-116.308 227.856,-116.308 227.856,-122.308 221.856,-128.308 215.856,-128.308 215.856,-128.308 33.8563,-128.308 33.8563,-128.308 27.8563,-128.308 21.8563,-122.308 21.8563,-116.308 21.8563,-116.308 21.8563,-32.3078 21.8563,-32.3078 21.8563,-26.3078 27.8563,-20.3078 33.8563,-20.3078"/>
<text text-anchor="middle" x="124.856" y="-113.108" font-family="Times,serif" font-size="14.00">Users::RegistrationsController</text>
<polyline fill="none" stroke="black" points="21.8563,-105.308 227.856,-105.308 "/>
<text text-anchor="start" x="29.8563" y="-90.1078" font-family="Times,serif" font-size="14.00">configure_account_update_params</text>
<text text-anchor="start" x="29.8563" y="-75.1078" font-family="Times,serif" font-size="14.00">configure_sign_up_params</text>
<polyline fill="none" stroke="black" points="21.8563,-67.3078 227.856,-67.3078 "/>
<polyline fill="none" stroke="black" points="21.8563,-43.3078 227.856,-43.3078 "/>
<text text-anchor="start" x="29.8563" y="-28.1078" font-family="Times,serif" font-size="14.00">_layout</text>
</g>
<!-- Users::UnlocksController -->
<g id="node11" class="node"><title>Users::UnlocksController</title>
<path fill="none" stroke="black" d="M1006.25,-6.38629C1006.25,-6.38629 1137.25,-6.38629 1137.25,-6.38629 1143.25,-6.38629 1149.25,-12.3863 1149.25,-18.3863 1149.25,-18.3863 1149.25,-88.3863 1149.25,-88.3863 1149.25,-94.3863 1143.25,-100.386 1137.25,-100.386 1137.25,-100.386 1006.25,-100.386 1006.25,-100.386 1000.25,-100.386 994.248,-94.3863 994.248,-88.3863 994.248,-88.3863 994.248,-18.3863 994.248,-18.3863 994.248,-12.3863 1000.25,-6.38629 1006.25,-6.38629"/>
<text text-anchor="middle" x="1071.75" y="-85.1863" font-family="Times,serif" font-size="14.00">Users::UnlocksController</text>
<polyline fill="none" stroke="black" points="994.248,-77.3863 1149.25,-77.3863 "/>
<polyline fill="none" stroke="black" points="994.248,-53.3863 1149.25,-53.3863 "/>
<polyline fill="none" stroke="black" points="994.248,-29.3863 1149.25,-29.3863 "/>
<text text-anchor="start" x="1002.25" y="-14.1863" font-family="Times,serif" font-size="14.00">_layout</text>
</g>
<!-- Devise::SessionsController -->
<g id="node15" class="node"><title>Devise::SessionsController</title>
<path fill="none" stroke="black" d="M1127.02,-728.078C1127.02,-728.078 1267.02,-728.078 1267.02,-728.078 1273.02,-728.078 1279.02,-734.078 1279.02,-740.078 1279.02,-740.078 1279.02,-928.078 1279.02,-928.078 1279.02,-934.078 1273.02,-940.078 1267.02,-940.078 1267.02,-940.078 1127.02,-940.078 1127.02,-940.078 1121.02,-940.078 1115.02,-934.078 1115.02,-928.078 1115.02,-928.078 1115.02,-740.078 1115.02,-740.078 1115.02,-734.078 1121.02,-728.078 1127.02,-728.078"/>
<text text-anchor="middle" x="1197.02" y="-924.878" font-family="Times,serif" font-size="14.00">Devise::SessionsController</text>
<polyline fill="none" stroke="black" points="1115.02,-917.078 1279.02,-917.078 "/>
<text text-anchor="start" x="1123.02" y="-901.878" font-family="Times,serif" font-size="14.00">create</text>
<text text-anchor="start" x="1123.02" y="-886.878" font-family="Times,serif" font-size="14.00">destroy</text>
<text text-anchor="start" x="1123.02" y="-871.878" font-family="Times,serif" font-size="14.00">new</text>
<polyline fill="none" stroke="black" points="1115.02,-864.078 1279.02,-864.078 "/>
<text text-anchor="start" x="1123.02" y="-848.878" font-family="Times,serif" font-size="14.00">auth_options</text>
<text text-anchor="start" x="1123.02" y="-833.878" font-family="Times,serif" font-size="14.00">serialize_options</text>
<text text-anchor="start" x="1123.02" y="-818.878" font-family="Times,serif" font-size="14.00">sign_in_params</text>
<text text-anchor="start" x="1123.02" y="-803.878" font-family="Times,serif" font-size="14.00">translation_scope</text>
<polyline fill="none" stroke="black" points="1115.02,-796.078 1279.02,-796.078 "/>
<text text-anchor="start" x="1123.02" y="-780.878" font-family="Times,serif" font-size="14.00">_layout</text>
<text text-anchor="start" x="1123.02" y="-765.878" font-family="Times,serif" font-size="14.00">all_signed_out?</text>
<text text-anchor="start" x="1123.02" y="-750.878" font-family="Times,serif" font-size="14.00">respond_to_on_destroy</text>
<text text-anchor="start" x="1123.02" y="-735.878" font-family="Times,serif" font-size="14.00">verify_signed_out_user</text>
</g>
<!-- Devise::SessionsController&#45;&gt;Users::SessionsController -->
<g id="edge4" class="edge"><title>Devise::SessionsController&#45;&gt;Users::SessionsController</title>
<path fill="none" stroke="black" d="M1279.41,-880.977C1345.43,-918.553 1437.45,-970.927 1502.45,-1007.93"/>
</g>
<!-- Devise::PasswordsController -->
<g id="node16" class="node"><title>Devise::PasswordsController</title>
<path fill="none" stroke="black" d="M1053.81,-1095.21C1053.81,-1095.21 1331.81,-1095.21 1331.81,-1095.21 1337.81,-1095.21 1343.81,-1101.21 1343.81,-1107.21 1343.81,-1107.21 1343.81,-1280.21 1343.81,-1280.21 1343.81,-1286.21 1337.81,-1292.21 1331.81,-1292.21 1331.81,-1292.21 1053.81,-1292.21 1053.81,-1292.21 1047.81,-1292.21 1041.81,-1286.21 1041.81,-1280.21 1041.81,-1280.21 1041.81,-1107.21 1041.81,-1107.21 1041.81,-1101.21 1047.81,-1095.21 1053.81,-1095.21"/>
<text text-anchor="middle" x="1192.81" y="-1277.01" font-family="Times,serif" font-size="14.00">Devise::PasswordsController</text>
<polyline fill="none" stroke="black" points="1041.81,-1269.21 1343.81,-1269.21 "/>
<text text-anchor="start" x="1049.81" y="-1254.01" font-family="Times,serif" font-size="14.00">create</text>
<text text-anchor="start" x="1049.81" y="-1239.01" font-family="Times,serif" font-size="14.00">edit</text>
<text text-anchor="start" x="1049.81" y="-1224.01" font-family="Times,serif" font-size="14.00">new</text>
<text text-anchor="start" x="1049.81" y="-1209.01" font-family="Times,serif" font-size="14.00">update</text>
<polyline fill="none" stroke="black" points="1041.81,-1201.21 1343.81,-1201.21 "/>
<text text-anchor="start" x="1049.81" y="-1186.01" font-family="Times,serif" font-size="14.00">after_resetting_password_path_for</text>
<text text-anchor="start" x="1049.81" y="-1171.01" font-family="Times,serif" font-size="14.00">after_sending_reset_password_instructions_path_for</text>
<text text-anchor="start" x="1049.81" y="-1156.01" font-family="Times,serif" font-size="14.00">assert_reset_token_passed</text>
<text text-anchor="start" x="1049.81" y="-1141.01" font-family="Times,serif" font-size="14.00">translation_scope</text>
<text text-anchor="start" x="1049.81" y="-1126.01" font-family="Times,serif" font-size="14.00">unlockable?</text>
<polyline fill="none" stroke="black" points="1041.81,-1118.21 1343.81,-1118.21 "/>
<text text-anchor="start" x="1049.81" y="-1103.01" font-family="Times,serif" font-size="14.00">_layout</text>
</g>
<!-- Devise::PasswordsController&#45;&gt;Users::PasswordsController -->
<g id="edge5" class="edge"><title>Devise::PasswordsController&#45;&gt;Users::PasswordsController</title>
<path fill="none" stroke="black" d="M1291.41,-1292.62C1357.93,-1359.34 1442.71,-1444.39 1494.58,-1496.43"/>
</g>
<!-- Devise::ConfirmationsController -->
<g id="node17" class="node"><title>Devise::ConfirmationsController</title>
<path fill="none" stroke="black" d="M688.625,-316.758C688.625,-316.758 964.625,-316.758 964.625,-316.758 970.625,-316.758 976.625,-322.758 976.625,-328.758 976.625,-328.758 976.625,-456.758 976.625,-456.758 976.625,-462.758 970.625,-468.758 964.625,-468.758 964.625,-468.758 688.625,-468.758 688.625,-468.758 682.625,-468.758 676.625,-462.758 676.625,-456.758 676.625,-456.758 676.625,-328.758 676.625,-328.758 676.625,-322.758 682.625,-316.758 688.625,-316.758"/>
<text text-anchor="middle" x="826.625" y="-453.558" font-family="Times,serif" font-size="14.00">Devise::ConfirmationsController</text>
<polyline fill="none" stroke="black" points="676.625,-445.758 976.625,-445.758 "/>
<text text-anchor="start" x="684.625" y="-430.558" font-family="Times,serif" font-size="14.00">create</text>
<text text-anchor="start" x="684.625" y="-415.558" font-family="Times,serif" font-size="14.00">new</text>
<text text-anchor="start" x="684.625" y="-400.558" font-family="Times,serif" font-size="14.00">show</text>
<polyline fill="none" stroke="black" points="676.625,-392.758 976.625,-392.758 "/>
<text text-anchor="start" x="684.625" y="-377.558" font-family="Times,serif" font-size="14.00">after_confirmation_path_for</text>
<text text-anchor="start" x="684.625" y="-362.558" font-family="Times,serif" font-size="14.00">after_resending_confirmation_instructions_path_for</text>
<text text-anchor="start" x="684.625" y="-347.558" font-family="Times,serif" font-size="14.00">translation_scope</text>
<polyline fill="none" stroke="black" points="676.625,-339.758 976.625,-339.758 "/>
<text text-anchor="start" x="684.625" y="-324.558" font-family="Times,serif" font-size="14.00">_layout</text>
</g>
<!-- Devise::ConfirmationsController&#45;&gt;Users::ConfirmationsController -->
<g id="edge6" class="edge"><title>Devise::ConfirmationsController&#45;&gt;Users::ConfirmationsController</title>
<path fill="none" stroke="black" d="M779.234,-316.562C737.055,-248.746 676.693,-151.696 641.169,-94.5788"/>
</g>
<!-- Devise::OmniauthCallbacksController -->
<g id="node18" class="node"><title>Devise::OmniauthCallbacksController</title>
<path fill="none" stroke="black" d="M1479.26,-521.693C1479.26,-521.693 1680.26,-521.693 1680.26,-521.693 1686.26,-521.693 1692.26,-527.693 1692.26,-533.693 1692.26,-533.693 1692.26,-661.693 1692.26,-661.693 1692.26,-667.693 1686.26,-673.693 1680.26,-673.693 1680.26,-673.693 1479.26,-673.693 1479.26,-673.693 1473.26,-673.693 1467.26,-667.693 1467.26,-661.693 1467.26,-661.693 1467.26,-533.693 1467.26,-533.693 1467.26,-527.693 1473.26,-521.693 1479.26,-521.693"/>
<text text-anchor="middle" x="1579.76" y="-658.493" font-family="Times,serif" font-size="14.00">Devise::OmniauthCallbacksController</text>
<polyline fill="none" stroke="black" points="1467.26,-650.693 1692.26,-650.693 "/>
<text text-anchor="start" x="1475.26" y="-635.493" font-family="Times,serif" font-size="14.00">failure</text>
<text text-anchor="start" x="1475.26" y="-620.493" font-family="Times,serif" font-size="14.00">passthru</text>
<polyline fill="none" stroke="black" points="1467.26,-612.693 1692.26,-612.693 "/>
<text text-anchor="start" x="1475.26" y="-597.493" font-family="Times,serif" font-size="14.00">after_omniauth_failure_path_for</text>
<text text-anchor="start" x="1475.26" y="-582.493" font-family="Times,serif" font-size="14.00">failed_strategy</text>
<text text-anchor="start" x="1475.26" y="-567.493" font-family="Times,serif" font-size="14.00">failure_message</text>
<text text-anchor="start" x="1475.26" y="-552.493" font-family="Times,serif" font-size="14.00">translation_scope</text>
<polyline fill="none" stroke="black" points="1467.26,-544.693 1692.26,-544.693 "/>
<text text-anchor="start" x="1475.26" y="-529.493" font-family="Times,serif" font-size="14.00">_layout</text>
</g>
<!-- Devise::OmniauthCallbacksController&#45;&gt;Users::OmniauthCallbacksController -->
<g id="edge7" class="edge"><title>Devise::OmniauthCallbacksController&#45;&gt;Users::OmniauthCallbacksController</title>
<path fill="none" stroke="black" d="M1574.09,-521.557C1567.03,-426.659 1555.07,-265.844 1548.26,-174.346"/>
</g>
<!-- Devise::RegistrationsController -->
<g id="node19" class="node"><title>Devise::RegistrationsController</title>
<path fill="none" stroke="black" d="M384.266,-281.905C384.266,-281.905 553.266,-281.905 553.266,-281.905 559.266,-281.905 565.266,-287.905 565.266,-293.905 565.266,-293.905 565.266,-586.905 565.266,-586.905 565.266,-592.905 559.266,-598.905 553.266,-598.905 553.266,-598.905 384.266,-598.905 384.266,-598.905 378.266,-598.905 372.266,-592.905 372.266,-586.905 372.266,-586.905 372.266,-293.905 372.266,-293.905 372.266,-287.905 378.266,-281.905 384.266,-281.905"/>
<text text-anchor="middle" x="468.766" y="-583.705" font-family="Times,serif" font-size="14.00">Devise::RegistrationsController</text>
<polyline fill="none" stroke="black" points="372.266,-575.905 565.266,-575.905 "/>
<text text-anchor="start" x="380.266" y="-560.705" font-family="Times,serif" font-size="14.00">cancel</text>
<text text-anchor="start" x="380.266" y="-545.705" font-family="Times,serif" font-size="14.00">create</text>
<text text-anchor="start" x="380.266" y="-530.705" font-family="Times,serif" font-size="14.00">destroy</text>
<text text-anchor="start" x="380.266" y="-515.705" font-family="Times,serif" font-size="14.00">edit</text>
<text text-anchor="start" x="380.266" y="-500.705" font-family="Times,serif" font-size="14.00">new</text>
<text text-anchor="start" x="380.266" y="-485.705" font-family="Times,serif" font-size="14.00">update</text>
<polyline fill="none" stroke="black" points="372.266,-477.905 565.266,-477.905 "/>
<text text-anchor="start" x="380.266" y="-462.705" font-family="Times,serif" font-size="14.00">account_update_params</text>
<text text-anchor="start" x="380.266" y="-447.705" font-family="Times,serif" font-size="14.00">after_inactive_sign_up_path_for</text>
<text text-anchor="start" x="380.266" y="-432.705" font-family="Times,serif" font-size="14.00">after_sign_up_path_for</text>
<text text-anchor="start" x="380.266" y="-417.705" font-family="Times,serif" font-size="14.00">after_update_path_for</text>
<text text-anchor="start" x="380.266" y="-402.705" font-family="Times,serif" font-size="14.00">authenticate_scope!</text>
<text text-anchor="start" x="380.266" y="-387.705" font-family="Times,serif" font-size="14.00">build_resource</text>
<text text-anchor="start" x="380.266" y="-372.705" font-family="Times,serif" font-size="14.00">sign_up</text>
<text text-anchor="start" x="380.266" y="-357.705" font-family="Times,serif" font-size="14.00">sign_up_params</text>
<text text-anchor="start" x="380.266" y="-342.705" font-family="Times,serif" font-size="14.00">translation_scope</text>
<text text-anchor="start" x="380.266" y="-327.705" font-family="Times,serif" font-size="14.00">update_needs_confirmation?</text>
<text text-anchor="start" x="380.266" y="-312.705" font-family="Times,serif" font-size="14.00">update_resource</text>
<polyline fill="none" stroke="black" points="372.266,-304.905 565.266,-304.905 "/>
<text text-anchor="start" x="380.266" y="-289.705" font-family="Times,serif" font-size="14.00">_layout</text>
</g>
<!-- Devise::RegistrationsController&#45;&gt;Users::RegistrationsController -->
<g id="edge8" class="edge"><title>Devise::RegistrationsController&#45;&gt;Users::RegistrationsController</title>
<path fill="none" stroke="black" d="M372.052,-337.453C308.279,-269.564 227.306,-183.367 175.768,-128.504"/>
</g>
<!-- Devise::UnlocksController -->
<g id="node20" class="node"><title>Devise::UnlocksController</title>
<path fill="none" stroke="black" d="M1078.51,-384.726C1078.51,-384.726 1310.51,-384.726 1310.51,-384.726 1316.51,-384.726 1322.51,-390.726 1322.51,-396.726 1322.51,-396.726 1322.51,-524.726 1322.51,-524.726 1322.51,-530.726 1316.51,-536.726 1310.51,-536.726 1310.51,-536.726 1078.51,-536.726 1078.51,-536.726 1072.51,-536.726 1066.51,-530.726 1066.51,-524.726 1066.51,-524.726 1066.51,-396.726 1066.51,-396.726 1066.51,-390.726 1072.51,-384.726 1078.51,-384.726"/>
<text text-anchor="middle" x="1194.51" y="-521.526" font-family="Times,serif" font-size="14.00">Devise::UnlocksController</text>
<polyline fill="none" stroke="black" points="1066.51,-513.726 1322.51,-513.726 "/>
<text text-anchor="start" x="1074.51" y="-498.526" font-family="Times,serif" font-size="14.00">create</text>
<text text-anchor="start" x="1074.51" y="-483.526" font-family="Times,serif" font-size="14.00">new</text>
<text text-anchor="start" x="1074.51" y="-468.526" font-family="Times,serif" font-size="14.00">show</text>
<polyline fill="none" stroke="black" points="1066.51,-460.726 1322.51,-460.726 "/>
<text text-anchor="start" x="1074.51" y="-445.526" font-family="Times,serif" font-size="14.00">after_sending_unlock_instructions_path_for</text>
<text text-anchor="start" x="1074.51" y="-430.526" font-family="Times,serif" font-size="14.00">after_unlock_path_for</text>
<text text-anchor="start" x="1074.51" y="-415.526" font-family="Times,serif" font-size="14.00">translation_scope</text>
<polyline fill="none" stroke="black" points="1066.51,-407.726 1322.51,-407.726 "/>
<text text-anchor="start" x="1074.51" y="-392.526" font-family="Times,serif" font-size="14.00">_layout</text>
</g>
<!-- Devise::UnlocksController&#45;&gt;Users::UnlocksController -->
<g id="edge9" class="edge"><title>Devise::UnlocksController&#45;&gt;Users::UnlocksController</title>
<path fill="none" stroke="black" d="M1171.57,-384.586C1146.44,-301.228 1106.95,-170.179 1085.96,-100.547"/>
</g>
<!-- DeviseController&#45;&gt;Devise::SessionsController -->
<g id="edge13" class="edge"><title>DeviseController&#45;&gt;Devise::SessionsController</title>
<path fill="none" stroke="black" d="M964.559,-730.395C1012.25,-751.668 1069.31,-777.117 1114.96,-797.479"/>
</g>
<!-- DeviseController&#45;&gt;Devise::PasswordsController -->
<g id="edge14" class="edge"><title>DeviseController&#45;&gt;Devise::PasswordsController</title>
<path fill="none" stroke="black" d="M964.421,-837.087C1017.72,-920.311 1082.59,-1021.61 1129.56,-1094.94"/>
</g>
<!-- DeviseController&#45;&gt;Devise::ConfirmationsController -->
<g id="edge15" class="edge"><title>DeviseController&#45;&gt;Devise::ConfirmationsController</title>
<path fill="none" stroke="black" d="M841.762,-498.804C840.284,-488.452 838.849,-478.396 837.488,-468.864"/>
</g>
<!-- DeviseController&#45;&gt;Devise::OmniauthCallbacksController -->
<g id="edge16" class="edge"><title>DeviseController&#45;&gt;Devise::OmniauthCallbacksController</title>
<path fill="none" stroke="black" d="M964.243,-675.563C1094.72,-659.056 1328.28,-629.508 1467.13,-611.942"/>
</g>
<!-- DeviseController&#45;&gt;Devise::RegistrationsController -->
<g id="edge17" class="edge"><title>DeviseController&#45;&gt;Devise::RegistrationsController</title>
<path fill="none" stroke="black" d="M773.174,-628.585C710.321,-589.731 628.338,-539.05 565.288,-500.074"/>
</g>
<!-- DeviseController&#45;&gt;Devise::UnlocksController -->
<g id="edge18" class="edge"><title>DeviseController&#45;&gt;Devise::UnlocksController</title>
<path fill="none" stroke="black" d="M964.266,-621.097C1002.19,-594.68 1046.03,-564.145 1085.22,-536.853"/>
</g>
<!-- Ahoy::EventsController -->
<g id="node22" class="node"><title>Ahoy::EventsController</title>
<path fill="none" stroke="black" d="M70.2492,-1533.02C70.2492,-1533.02 192.249,-1533.02 192.249,-1533.02 198.249,-1533.02 204.249,-1539.02 204.249,-1545.02 204.249,-1545.02 204.249,-1614.02 204.249,-1614.02 204.249,-1620.02 198.249,-1626.02 192.249,-1626.02 192.249,-1626.02 70.2492,-1626.02 70.2492,-1626.02 64.2492,-1626.02 58.2492,-1620.02 58.2492,-1614.02 58.2492,-1614.02 58.2492,-1545.02 58.2492,-1545.02 58.2492,-1539.02 64.2492,-1533.02 70.2492,-1533.02"/>
<text text-anchor="middle" x="131.249" y="-1610.82" font-family="Times,serif" font-size="14.00">Ahoy::EventsController</text>
<polyline fill="none" stroke="black" points="58.2492,-1603.02 204.249,-1603.02 "/>
<text text-anchor="start" x="66.2492" y="-1587.82" font-family="Times,serif" font-size="14.00">create</text>
<polyline fill="none" stroke="black" points="58.2492,-1580.02 204.249,-1580.02 "/>
<polyline fill="none" stroke="black" points="58.2492,-1556.02 204.249,-1556.02 "/>
<text text-anchor="start" x="66.2492" y="-1540.82" font-family="Times,serif" font-size="14.00">_layout</text>
</g>
<!-- Ahoy::BaseController&#45;&gt;Ahoy::EventsController -->
<g id="edge20" class="edge"><title>Ahoy::BaseController&#45;&gt;Ahoy::EventsController</title>
<path fill="none" stroke="black" d="M536.579,-1585.19C448.306,-1583.95 294.957,-1581.81 204.312,-1580.54"/>
</g>
<!-- Ahoy::VisitsController -->
<g id="node24" class="node"><title>Ahoy::VisitsController</title>
<path fill="none" stroke="black" d="M1007.44,-1552.61C1007.44,-1552.61 1124.44,-1552.61 1124.44,-1552.61 1130.44,-1552.61 1136.44,-1558.61 1136.44,-1564.61 1136.44,-1564.61 1136.44,-1633.61 1136.44,-1633.61 1136.44,-1639.61 1130.44,-1645.61 1124.44,-1645.61 1124.44,-1645.61 1007.44,-1645.61 1007.44,-1645.61 1001.44,-1645.61 995.436,-1639.61 995.436,-1633.61 995.436,-1633.61 995.436,-1564.61 995.436,-1564.61 995.436,-1558.61 1001.44,-1552.61 1007.44,-1552.61"/>
<text text-anchor="middle" x="1065.94" y="-1630.41" font-family="Times,serif" font-size="14.00">Ahoy::VisitsController</text>
<polyline fill="none" stroke="black" points="995.436,-1622.61 1136.44,-1622.61 "/>
<text text-anchor="start" x="1003.44" y="-1607.41" font-family="Times,serif" font-size="14.00">create</text>
<polyline fill="none" stroke="black" points="995.436,-1599.61 1136.44,-1599.61 "/>
<polyline fill="none" stroke="black" points="995.436,-1575.61 1136.44,-1575.61 "/>
<text text-anchor="start" x="1003.44" y="-1560.41" font-family="Times,serif" font-size="14.00">_layout</text>
</g>
<!-- Ahoy::BaseController&#45;&gt;Ahoy::VisitsController -->
<g id="edge22" class="edge"><title>Ahoy::BaseController&#45;&gt;Ahoy::VisitsController</title>
<path fill="none" stroke="black" d="M672.721,-1588.05C759.182,-1590.48 907.66,-1594.66 995.32,-1597.12"/>
</g>
</g>
</svg>
