<?xml version="1.0" encoding="UTF-8" standalone="no"?>
<!DOCTYPE svg PUBLIC "-//W3C//DTD SVG 1.1//EN"
 "http://www.w3.org/Graphics/SVG/1.1/DTD/svg11.dtd">
<!-- Generated by graphviz version 2.36.0 (20140111.2315)
 -->
<!-- Title: models_diagram Pages: 1 -->
<svg width="1610pt" height="1490pt"
 viewBox="0.00 0.00 1610.00 1490.00" xmlns="http://www.w3.org/2000/svg" xmlns:xlink="http://www.w3.org/1999/xlink">
<g id="graph0" class="graph" transform="scale(1 1) rotate(0) translate(4 1486)">
<title>models_diagram</title>
<polygon fill="none" stroke="none" points="-4,4 -4,-1486 1606,-1486 1606,4 -4,4"/>
<!-- _diagram_info -->
<g id="node1" class="node"><title>_diagram_info</title>
<text text-anchor="start" x="7" y="-1467.6" font-family="Times,serif" font-size="13.00">Models diagram</text>
<text text-anchor="start" x="7" y="-1453.6" font-family="Times,serif" font-size="13.00">Date: May 08 2016 &#45; 16:14</text>
<text text-anchor="start" x="7" y="-1439.6" font-family="Times,serif" font-size="13.00">Migration version: 20160503223424</text>
<text text-anchor="start" x="7" y="-1425.6" font-family="Times,serif" font-size="13.00">Generated by RailRoady 1.4.2</text>
<text text-anchor="start" x="7" y="-1411.6" font-family="Times,serif" font-size="13.00">http://railroady.prestonlee.com</text>
</g>
<!-- User -->
<g id="node2" class="node"><title>User</title>
<path fill="none" stroke="black" d="M852.5,-929C852.5,-929 1141.5,-929 1141.5,-929 1147.5,-929 1153.5,-935 1153.5,-941 1153.5,-941 1153.5,-1353 1153.5,-1353 1153.5,-1359 1147.5,-1365 1141.5,-1365 1141.5,-1365 852.5,-1365 852.5,-1365 846.5,-1365 840.5,-1359 840.5,-1353 840.5,-1353 840.5,-941 840.5,-941 840.5,-935 846.5,-929 852.5,-929"/>
<text text-anchor="middle" x="997" y="-1349.8" font-family="Times,serif" font-size="14.00">User</text>
<polyline fill="none" stroke="black" points="840.5,-1342 1153.5,-1342 "/>
<text text-anchor="start" x="848.5" y="-1326.8" font-family="Times,serif" font-size="14.00">id :integer</text>
<text text-anchor="start" x="848.5" y="-1311.8" font-family="Times,serif" font-size="14.00">email :character varying</text>
<text text-anchor="start" x="848.5" y="-1296.8" font-family="Times,serif" font-size="14.00">encrypted_password :character varying</text>
<text text-anchor="start" x="848.5" y="-1281.8" font-family="Times,serif" font-size="14.00">login :character varying</text>
<text text-anchor="start" x="848.5" y="-1266.8" font-family="Times,serif" font-size="14.00">role :character varying</text>
<text text-anchor="start" x="848.5" y="-1251.8" font-family="Times,serif" font-size="14.00">reset_password_token :character varying</text>
<text text-anchor="start" x="848.5" y="-1236.8" font-family="Times,serif" font-size="14.00">reset_password_sent_at :timestamp without time zone</text>
<text text-anchor="start" x="848.5" y="-1221.8" font-family="Times,serif" font-size="14.00">remember_created_at :timestamp without time zone</text>
<text text-anchor="start" x="848.5" y="-1206.8" font-family="Times,serif" font-size="14.00">sign_in_count :integer</text>
<text text-anchor="start" x="848.5" y="-1191.8" font-family="Times,serif" font-size="14.00">current_sign_in_at :timestamp without time zone</text>
<text text-anchor="start" x="848.5" y="-1176.8" font-family="Times,serif" font-size="14.00">last_sign_in_at :timestamp without time zone</text>
<text text-anchor="start" x="848.5" y="-1161.8" font-family="Times,serif" font-size="14.00">current_sign_in_ip :inet</text>
<text text-anchor="start" x="848.5" y="-1146.8" font-family="Times,serif" font-size="14.00">last_sign_in_ip :inet</text>
<text text-anchor="start" x="848.5" y="-1131.8" font-family="Times,serif" font-size="14.00">created_at :timestamp without time zone</text>
<text text-anchor="start" x="848.5" y="-1116.8" font-family="Times,serif" font-size="14.00">updated_at :timestamp without time zone</text>
<text text-anchor="start" x="848.5" y="-1101.8" font-family="Times,serif" font-size="14.00">name :character varying</text>
<text text-anchor="start" x="848.5" y="-1086.8" font-family="Times,serif" font-size="14.00">confirmation_token :character varying</text>
<text text-anchor="start" x="848.5" y="-1071.8" font-family="Times,serif" font-size="14.00">confirmed_at :timestamp without time zone</text>
<text text-anchor="start" x="848.5" y="-1056.8" font-family="Times,serif" font-size="14.00">confirmation_sent_at :timestamp without time zone</text>
<text text-anchor="start" x="848.5" y="-1041.8" font-family="Times,serif" font-size="14.00">unconfirmed_email :character varying</text>
<text text-anchor="start" x="848.5" y="-1026.8" font-family="Times,serif" font-size="14.00">provider :character varying</text>
<text text-anchor="start" x="848.5" y="-1011.8" font-family="Times,serif" font-size="14.00">uid :character varying</text>
<text text-anchor="start" x="848.5" y="-996.8" font-family="Times,serif" font-size="14.00">locale :character varying</text>
<text text-anchor="start" x="848.5" y="-981.8" font-family="Times,serif" font-size="14.00">avatar :character varying</text>
<text text-anchor="start" x="848.5" y="-966.8" font-family="Times,serif" font-size="14.00">last_name :character varying</text>
<text text-anchor="start" x="848.5" y="-951.8" font-family="Times,serif" font-size="14.00">birthday :date</text>
<text text-anchor="start" x="848.5" y="-936.8" font-family="Times,serif" font-size="14.00">phone :character varying</text>
</g>
<!-- Identity -->
<g id="node4" class="node"><title>Identity</title>
<path fill="none" stroke="black" d="M252,-708.5C252,-708.5 472,-708.5 472,-708.5 478,-708.5 484,-714.5 484,-720.5 484,-720.5 484,-817.5 484,-817.5 484,-823.5 478,-829.5 472,-829.5 472,-829.5 252,-829.5 252,-829.5 246,-829.5 240,-823.5 240,-817.5 240,-817.5 240,-720.5 240,-720.5 240,-714.5 246,-708.5 252,-708.5"/>
<text text-anchor="middle" x="362" y="-814.3" font-family="Times,serif" font-size="14.00">Identity</text>
<polyline fill="none" stroke="black" points="240,-806.5 484,-806.5 "/>
<text text-anchor="start" x="248" y="-791.3" font-family="Times,serif" font-size="14.00">id :integer</text>
<text text-anchor="start" x="248" y="-776.3" font-family="Times,serif" font-size="14.00">user_id :integer</text>
<text text-anchor="start" x="248" y="-761.3" font-family="Times,serif" font-size="14.00">provider :character varying</text>
<text text-anchor="start" x="248" y="-746.3" font-family="Times,serif" font-size="14.00">uid :character varying</text>
<text text-anchor="start" x="248" y="-731.3" font-family="Times,serif" font-size="14.00">created_at :timestamp without time zone</text>
<text text-anchor="start" x="248" y="-716.3" font-family="Times,serif" font-size="14.00">updated_at :timestamp without time zone</text>
</g>
<!-- User&#45;&gt;Identity -->
<g id="edge2" class="edge"><title>User&#45;&gt;Identity</title>
<path fill="none" stroke="#f87d95" d="M833.151,-1042.98C761.687,-1001.95 675.512,-957.561 593,-928 553.777,-913.948 537.74,-929.649 501,-910 467.875,-892.285 437.621,-864.053 413.857,-837.567"/>
<ellipse fill="none" stroke="#f87d95" cx="836.996" cy="-1045.2" rx="4.00002" ry="4.00002"/>
<polygon fill="#f87d95" stroke="#f87d95" points="413.618,-837.295 410.392,-826.815 410.316,-833.541 407.013,-829.787 407.013,-829.787 407.013,-829.787 410.316,-833.541 403.634,-832.759 413.618,-837.295 413.618,-837.295"/>
</g>
<!-- Comment -->
<g id="node6" class="node"><title>Comment</title>
<path fill="none" stroke="black" d="M380,-279.5C380,-279.5 600,-279.5 600,-279.5 606,-279.5 612,-285.5 612,-291.5 612,-291.5 612,-478.5 612,-478.5 612,-484.5 606,-490.5 600,-490.5 600,-490.5 380,-490.5 380,-490.5 374,-490.5 368,-484.5 368,-478.5 368,-478.5 368,-291.5 368,-291.5 368,-285.5 374,-279.5 380,-279.5"/>
<text text-anchor="middle" x="490" y="-475.3" font-family="Times,serif" font-size="14.00">Comment</text>
<polyline fill="none" stroke="black" points="368,-467.5 612,-467.5 "/>
<text text-anchor="start" x="376" y="-452.3" font-family="Times,serif" font-size="14.00">id :integer</text>
<text text-anchor="start" x="376" y="-437.3" font-family="Times,serif" font-size="14.00">commentable_id :integer</text>
<text text-anchor="start" x="376" y="-422.3" font-family="Times,serif" font-size="14.00">commentable_type :character varying</text>
<text text-anchor="start" x="376" y="-407.3" font-family="Times,serif" font-size="14.00">title :character varying</text>
<text text-anchor="start" x="376" y="-392.3" font-family="Times,serif" font-size="14.00">body :text</text>
<text text-anchor="start" x="376" y="-377.3" font-family="Times,serif" font-size="14.00">subject :character varying</text>
<text text-anchor="start" x="376" y="-362.3" font-family="Times,serif" font-size="14.00">user_id :integer</text>
<text text-anchor="start" x="376" y="-347.3" font-family="Times,serif" font-size="14.00">parent_id :integer</text>
<text text-anchor="start" x="376" y="-332.3" font-family="Times,serif" font-size="14.00">lft :integer</text>
<text text-anchor="start" x="376" y="-317.3" font-family="Times,serif" font-size="14.00">rgt :integer</text>
<text text-anchor="start" x="376" y="-302.3" font-family="Times,serif" font-size="14.00">created_at :timestamp without time zone</text>
<text text-anchor="start" x="376" y="-287.3" font-family="Times,serif" font-size="14.00">updated_at :timestamp without time zone</text>
</g>
<!-- User&#45;&gt;Comment -->
<g id="edge3" class="edge"><title>User&#45;&gt;Comment</title>
<path fill="none" stroke="#3d479c" d="M833.118,-1058.29C700.809,-987.128 535.792,-897.397 531,-890 510.381,-858.17 498.917,-639.674 493.643,-501.014"/>
<ellipse fill="none" stroke="#3d479c" cx="836.665" cy="-1060.2" rx="4.00002" ry="4.00002"/>
<polygon fill="#3d479c" stroke="#3d479c" points="493.634,-500.752 497.756,-490.59 493.446,-495.755 493.259,-490.759 493.259,-490.759 493.259,-490.759 493.446,-495.755 488.762,-490.927 493.634,-500.752 493.634,-500.752"/>
</g>
<!-- Article -->
<g id="node7" class="node"><title>Article</title>
<path fill="none" stroke="black" d="M552,-648.5C552,-648.5 772,-648.5 772,-648.5 778,-648.5 784,-654.5 784,-660.5 784,-660.5 784,-877.5 784,-877.5 784,-883.5 778,-889.5 772,-889.5 772,-889.5 552,-889.5 552,-889.5 546,-889.5 540,-883.5 540,-877.5 540,-877.5 540,-660.5 540,-660.5 540,-654.5 546,-648.5 552,-648.5"/>
<text text-anchor="middle" x="662" y="-874.3" font-family="Times,serif" font-size="14.00">Article</text>
<polyline fill="none" stroke="black" points="540,-866.5 784,-866.5 "/>
<text text-anchor="start" x="548" y="-851.3" font-family="Times,serif" font-size="14.00">id :integer</text>
<text text-anchor="start" x="548" y="-836.3" font-family="Times,serif" font-size="14.00">title :text</text>
<text text-anchor="start" x="548" y="-821.3" font-family="Times,serif" font-size="14.00">full_text :text</text>
<text text-anchor="start" x="548" y="-806.3" font-family="Times,serif" font-size="14.00">created_at :timestamp without time zone</text>
<text text-anchor="start" x="548" y="-791.3" font-family="Times,serif" font-size="14.00">updated_at :timestamp without time zone</text>
<text text-anchor="start" x="548" y="-776.3" font-family="Times,serif" font-size="14.00">description :text</text>
<text text-anchor="start" x="548" y="-761.3" font-family="Times,serif" font-size="14.00">importance :boolean</text>
<text text-anchor="start" x="548" y="-746.3" font-family="Times,serif" font-size="14.00">user_id :integer</text>
<text text-anchor="start" x="548" y="-731.3" font-family="Times,serif" font-size="14.00">rating :integer</text>
<text text-anchor="start" x="548" y="-716.3" font-family="Times,serif" font-size="14.00">published :boolean</text>
<text text-anchor="start" x="548" y="-701.3" font-family="Times,serif" font-size="14.00">category_id :integer</text>
<text text-anchor="start" x="548" y="-686.3" font-family="Times,serif" font-size="14.00">visitors :integer</text>
<text text-anchor="start" x="548" y="-671.3" font-family="Times,serif" font-size="14.00">hidden :boolean</text>
<text text-anchor="start" x="548" y="-656.3" font-family="Times,serif" font-size="14.00">access_to_description :boolean</text>
</g>
<!-- User&#45;&gt;Article -->
<g id="edge1" class="edge"><title>User&#45;&gt;Article</title>
<path fill="none" stroke="#5904ea" d="M834.882,-964.041C814.759,-941.454 794.531,-918.751 775.364,-897.238"/>
<ellipse fill="none" stroke="#5904ea" cx="837.628" cy="-967.123" rx="4.00002" ry="4.00002"/>
<polygon fill="#5904ea" stroke="#5904ea" points="775.282,-897.147 771.99,-886.687 771.956,-893.413 768.63,-889.68 768.63,-889.68 768.63,-889.68 771.956,-893.413 765.27,-892.674 775.282,-897.147 775.282,-897.147"/>
</g>
<!-- ActsAsTaggableOn::Tagging -->
<g id="node9" class="node"><title>ActsAsTaggableOn::Tagging</title>
<ellipse fill="none" stroke="black" cx="1294" cy="-385" rx="114.085" ry="18"/>
<text text-anchor="middle" x="1294" y="-381.3" font-family="Times,serif" font-size="14.00">ActsAsTaggableOn::Tagging</text>
</g>
<!-- User&#45;&gt;ActsAsTaggableOn::Tagging -->
<g id="edge4" class="edge"><title>User&#45;&gt;ActsAsTaggableOn::Tagging</title>
<path fill="none" stroke="#0aa5ed" d="M1161.18,-1092.21C1254.4,-1052.26 1363.15,-987.553 1418,-890 1511.34,-723.993 1366.04,-488.561 1312.52,-411.493"/>
<ellipse fill="none" stroke="#0aa5ed" cx="1157.32" cy="-1093.84" rx="4.00002" ry="4.00002"/>
<polygon fill="#0aa5ed" stroke="#0aa5ed" points="1312.51,-411.481 1310.44,-400.713 1309.63,-407.391 1306.76,-403.301 1306.76,-403.301 1306.76,-403.301 1309.63,-407.391 1303.07,-405.889 1312.51,-411.481 1312.51,-411.481"/>
<text text-anchor="middle" x="1471" y="-765.3" font-family="Times,serif" font-size="14.00">taggings</text>
</g>
<!-- User&#45;&gt;ActsAsTaggableOn::Tagging -->
<g id="edge6" class="edge"><title>User&#45;&gt;ActsAsTaggableOn::Tagging</title>
<path fill="none" stroke="#c7fb39" d="M1161.73,-1109.83C1277.88,-1074.8 1425.23,-1008.9 1498,-890 1554.14,-798.261 1532.93,-749.725 1498,-648 1462.69,-545.175 1368.69,-451.662 1321.64,-409.543"/>
<ellipse fill="none" stroke="#c7fb39" cx="1157.61" cy="-1111.06" rx="4.00001" ry="4.00001"/>
<polygon fill="#c7fb39" stroke="#c7fb39" points="1321.46,-409.382 1316.95,-399.386 1317.71,-406.07 1313.97,-402.758 1313.97,-402.758 1313.97,-402.758 1317.71,-406.07 1310.99,-406.129 1321.46,-409.382 1321.46,-409.382"/>
<text text-anchor="middle" x="1567" y="-765.3" font-family="Times,serif" font-size="14.00">tag_taggings</text>
</g>
<!-- User&#45;&gt;ActsAsTaggableOn::Tagging -->
<g id="edge8" class="edge"><title>User&#45;&gt;ActsAsTaggableOn::Tagging</title>
<path fill="none" stroke="#fd6e0b" d="M1155.24,-921.543C1160.54,-911.056 1165.49,-900.515 1170,-890 1213.38,-788.8 1196.81,-754.946 1223,-648 1244.15,-561.611 1272.7,-460.204 1286.25,-412.872"/>
<ellipse fill="none" stroke="#fd6e0b" cx="1153.34" cy="-925.237" rx="4.00002" ry="4.00002"/>
<polygon fill="#fd6e0b" stroke="#fd6e0b" points="1286.3,-412.703 1293.38,-404.332 1287.68,-407.897 1289.06,-403.091 1289.06,-403.091 1289.06,-403.091 1287.68,-407.897 1284.73,-401.85 1286.3,-412.703 1286.3,-412.703"/>
<text text-anchor="middle" x="1261" y="-765.3" font-family="Times,serif" font-size="14.00">skill_taggings</text>
</g>
<!-- User&#45;&gt;ActsAsTaggableOn::Tagging -->
<g id="edge10" class="edge"><title>User&#45;&gt;ActsAsTaggableOn::Tagging</title>
<path fill="none" stroke="#413ae8" d="M1160.46,-1049.3C1214.99,-1007.78 1269.36,-953.975 1299,-890 1338.67,-804.365 1307.94,-505.205 1297.28,-413.159"/>
<ellipse fill="none" stroke="#413ae8" cx="1157" cy="-1051.9" rx="4.00002" ry="4.00002"/>
<polygon fill="#413ae8" stroke="#413ae8" points="1297.28,-413.158 1300.58,-402.702 1296.7,-408.192 1296.11,-403.226 1296.11,-403.226 1296.11,-403.226 1296.7,-408.192 1291.65,-403.751 1297.28,-413.158 1297.28,-413.158"/>
<text text-anchor="middle" x="1364.5" y="-765.3" font-family="Times,serif" font-size="14.00">interest_taggings</text>
</g>
<!-- ActsAsTaggableOn::Tag -->
<g id="node10" class="node"><title>ActsAsTaggableOn::Tag</title>
<ellipse fill="none" stroke="black" cx="1036" cy="-385" rx="98.1881" ry="18"/>
<text text-anchor="middle" x="1036" y="-381.3" font-family="Times,serif" font-size="14.00">ActsAsTaggableOn::Tag</text>
</g>
<!-- User&#45;&gt;ActsAsTaggableOn::Tag -->
<g id="edge5" class="edge"><title>User&#45;&gt;ActsAsTaggableOn::Tag</title>
<path fill="none" stroke="#a20c78" d="M977.706,-918.828C973.293,-808.137 977.619,-689.973 1011,-648 1030.73,-623.195 1060.62,-655.08 1080,-630 1084.35,-624.373 1080.68,-621.079 1080,-614 1072.96,-540.379 1053.42,-455.188 1042.9,-412.816"/>
<polygon fill="#a20c78" stroke="#a20c78" points="977.706,-918.836 973.633,-929.017 977.917,-923.832 978.129,-928.827 978.129,-928.827 978.129,-928.827 977.917,-923.832 982.625,-928.637 977.706,-918.836 977.706,-918.836"/>
<polygon fill="#a20c78" stroke="#a20c78" points="1042.87,-412.698 1044.8,-401.903 1041.65,-407.848 1040.44,-402.999 1040.44,-402.999 1040.44,-402.999 1041.65,-407.848 1036.07,-404.095 1042.87,-412.698 1042.87,-412.698"/>
<text text-anchor="middle" x="1037.5" y="-765.3" font-family="Times,serif" font-size="14.00">base_tags</text>
</g>
<!-- User&#45;&gt;ActsAsTaggableOn::Tag -->
<g id="edge7" class="edge"><title>User&#45;&gt;ActsAsTaggableOn::Tag</title>
<path fill="none" stroke="#74cc4e" d="M1070.28,-918.869C1092.39,-824.88 1107.8,-714.552 1095,-614 1085.53,-539.621 1059.35,-454.809 1045.26,-412.677"/>
<polygon fill="#74cc4e" stroke="#74cc4e" points="1070.23,-919.059 1063.53,-927.738 1069.07,-923.922 1067.9,-928.785 1067.9,-928.785 1067.9,-928.785 1069.07,-923.922 1072.28,-929.831 1070.23,-919.059 1070.23,-919.059"/>
<polygon fill="#74cc4e" stroke="#74cc4e" points="1045.25,-412.627 1046.3,-401.712 1043.64,-407.891 1042.04,-403.155 1042.04,-403.155 1042.04,-403.155 1043.64,-407.891 1037.78,-404.598 1045.25,-412.627 1045.25,-412.627"/>
<text text-anchor="middle" x="1110" y="-765.3" font-family="Times,serif" font-size="14.00">tags</text>
</g>
<!-- User&#45;&gt;ActsAsTaggableOn::Tag -->
<g id="edge9" class="edge"><title>User&#45;&gt;ActsAsTaggableOn::Tag</title>
<path fill="none" stroke="#dbbd3b" d="M1114.12,-919.107C1117.11,-909.393 1119.77,-899.668 1122,-890 1146.22,-785.206 1138.98,-754.206 1122,-648 1107.74,-558.816 1067.79,-458.791 1047.76,-412.338"/>
<polygon fill="#dbbd3b" stroke="#dbbd3b" points="1114.07,-919.288 1106.74,-927.445 1112.54,-924.051 1111.02,-928.814 1111.02,-928.814 1111.02,-928.814 1112.54,-924.051 1115.31,-930.183 1114.07,-919.288 1114.07,-919.288"/>
<polygon fill="#dbbd3b" stroke="#dbbd3b" points="1047.69,-412.17 1047.82,-401.205 1045.69,-407.586 1043.69,-403.003 1043.69,-403.003 1043.69,-403.003 1045.69,-407.586 1039.57,-404.801 1047.69,-412.17 1047.69,-412.17"/>
<text text-anchor="middle" x="1151.5" y="-765.3" font-family="Times,serif" font-size="14.00">skills</text>
</g>
<!-- User&#45;&gt;ActsAsTaggableOn::Tag -->
<g id="edge11" class="edge"><title>User&#45;&gt;ActsAsTaggableOn::Tag</title>
<path fill="none" stroke="#e813c5" d="M927.262,-918.801C907.726,-823.854 897.484,-712.84 921,-614 939.841,-534.808 990.815,-451.925 1018.14,-411.384"/>
<polygon fill="#e813c5" stroke="#e813c5" points="927.311,-919.034 924.966,-929.746 928.34,-923.927 929.37,-928.82 929.37,-928.82 929.37,-928.82 928.34,-923.927 933.773,-927.893 927.311,-919.034 927.311,-919.034"/>
<polygon fill="#e813c5" stroke="#e813c5" points="1018.27,-411.192 1027.62,-405.469 1021.08,-407.062 1023.9,-402.932 1023.9,-402.932 1023.9,-402.932 1021.08,-407.062 1020.19,-400.395 1018.27,-411.192 1018.27,-411.192"/>
<text text-anchor="middle" x="944" y="-765.3" font-family="Times,serif" font-size="14.00">interests</text>
</g>
<!-- ActsAsVotable::Vote -->
<g id="node11" class="node"><title>ActsAsVotable::Vote</title>
<ellipse fill="none" stroke="black" cx="779" cy="-385" rx="86.1637" ry="18"/>
<text text-anchor="middle" x="779" y="-381.3" font-family="Times,serif" font-size="14.00">ActsAsVotable::Vote</text>
</g>
<!-- User&#45;&gt;ActsAsVotable::Vote -->
<g id="edge12" class="edge"><title>User&#45;&gt;ActsAsVotable::Vote</title>
<path fill="none" stroke="#d32703" d="M887.245,-921.594C882.657,-910.963 878.218,-900.395 874,-890 831.357,-784.901 852.688,-744.444 793,-648 787.046,-638.38 779.33,-640.453 775,-630 744.541,-556.466 760.941,-459.454 771.828,-413.025"/>
<ellipse fill="none" stroke="#d32703" cx="888.851" cy="-925.292" rx="4.00002" ry="4.00002"/>
<polygon fill="#d32703" stroke="#d32703" points="771.872,-412.844 778.618,-404.199 773.06,-407.987 774.247,-403.13 774.247,-403.13 774.247,-403.13 773.06,-407.987 769.876,-402.062 771.872,-412.844 771.872,-412.844"/>
<text text-anchor="middle" x="888.5" y="-765.3" font-family="Times,serif" font-size="14.00">votes</text>
</g>
<!-- Ahoy::Event -->
<g id="node3" class="node"><title>Ahoy::Event</title>
<path fill="none" stroke="black" d="M36.5,-0.5C36.5,-0.5 221.5,-0.5 221.5,-0.5 227.5,-0.5 233.5,-6.5 233.5,-12.5 233.5,-12.5 233.5,-109.5 233.5,-109.5 233.5,-115.5 227.5,-121.5 221.5,-121.5 221.5,-121.5 36.5,-121.5 36.5,-121.5 30.5,-121.5 24.5,-115.5 24.5,-109.5 24.5,-109.5 24.5,-12.5 24.5,-12.5 24.5,-6.5 30.5,-0.5 36.5,-0.5"/>
<text text-anchor="middle" x="129" y="-106.3" font-family="Times,serif" font-size="14.00">Ahoy::Event</text>
<polyline fill="none" stroke="black" points="24.5,-98.5 233.5,-98.5 "/>
<text text-anchor="start" x="32.5" y="-83.3" font-family="Times,serif" font-size="14.00">id :uuid</text>
<text text-anchor="start" x="32.5" y="-68.3" font-family="Times,serif" font-size="14.00">visit_id :uuid</text>
<text text-anchor="start" x="32.5" y="-53.3" font-family="Times,serif" font-size="14.00">user_id :integer</text>
<text text-anchor="start" x="32.5" y="-38.3" font-family="Times,serif" font-size="14.00">name :character varying</text>
<text text-anchor="start" x="32.5" y="-23.3" font-family="Times,serif" font-size="14.00">properties :json</text>
<text text-anchor="start" x="32.5" y="-8.3" font-family="Times,serif" font-size="14.00">time :timestamp without time zone</text>
</g>
<!-- Category -->
<g id="node5" class="node"><title>Category</title>
<path fill="none" stroke="black" d="M352,-1101.5C352,-1101.5 572,-1101.5 572,-1101.5 578,-1101.5 584,-1107.5 584,-1113.5 584,-1113.5 584,-1180.5 584,-1180.5 584,-1186.5 578,-1192.5 572,-1192.5 572,-1192.5 352,-1192.5 352,-1192.5 346,-1192.5 340,-1186.5 340,-1180.5 340,-1180.5 340,-1113.5 340,-1113.5 340,-1107.5 346,-1101.5 352,-1101.5"/>
<text text-anchor="middle" x="462" y="-1177.3" font-family="Times,serif" font-size="14.00">Category</text>
<polyline fill="none" stroke="black" points="340,-1169.5 584,-1169.5 "/>
<text text-anchor="start" x="348" y="-1154.3" font-family="Times,serif" font-size="14.00">id :integer</text>
<text text-anchor="start" x="348" y="-1139.3" font-family="Times,serif" font-size="14.00">title :character varying</text>
<text text-anchor="start" x="348" y="-1124.3" font-family="Times,serif" font-size="14.00">created_at :timestamp without time zone</text>
<text text-anchor="start" x="348" y="-1109.3" font-family="Times,serif" font-size="14.00">updated_at :timestamp without time zone</text>
</g>
<!-- Category&#45;&gt;Article -->
<g id="edge16" class="edge"><title>Category&#45;&gt;Article</title>
<path fill="none" stroke="#658f69" d="M489.557,-1094.19C516.276,-1043.96 557.887,-965.733 593.539,-898.707"/>
<ellipse fill="none" stroke="#658f69" cx="487.606" cy="-1097.86" rx="4.00002" ry="4.00002"/>
<polygon fill="#658f69" stroke="#658f69" points="593.607,-898.579 602.276,-891.863 595.955,-894.164 598.303,-889.75 598.303,-889.75 598.303,-889.75 595.955,-894.164 594.33,-887.637 593.607,-898.579 593.607,-898.579"/>
</g>
<!-- Comment&#45;&gt;Comment -->
<g id="edge18" class="edge"><title>Comment&#45;&gt;Comment</title>
<path fill="none" stroke="#bf1d3e" d="M618.892,-414.423C625.862,-407.231 630,-397.424 630,-385 630,-373.322 626.343,-363.955 620.116,-356.9"/>
<ellipse fill="none" stroke="#bf1d3e" cx="615.469" cy="-417.283" rx="4.00002" ry="4.00002"/>
<polygon fill="#bf1d3e" stroke="#bf1d3e" points="619.927,-356.735 615.363,-346.764 616.164,-353.443 612.4,-350.152 612.4,-350.152 612.4,-350.152 616.164,-353.443 609.437,-353.539 619.927,-356.735 619.927,-356.735"/>
<text text-anchor="middle" x="652.5" y="-381.3" font-family="Times,serif" font-size="14.00">children</text>
</g>
<!-- Article&#45;&gt;Comment -->
<g id="edge20" class="edge"><title>Article&#45;&gt;Comment</title>
<path fill="none" stroke="#a3b14e" d="M559.875,-641.188C557.817,-637.47 555.853,-633.737 554,-630 534.012,-589.686 519.76,-542.428 509.858,-500.293"/>
<ellipse fill="none" stroke="#a3b14e" cx="561.962" cy="-644.843" rx="4.00002" ry="4.00002"/>
<polygon fill="#a3b14e" stroke="#a3b14e" points="509.858,-500.293 512.009,-489.54 508.74,-495.42 507.622,-490.546 507.622,-490.546 507.622,-490.546 508.74,-495.42 503.236,-491.552 509.858,-500.293 509.858,-500.293"/>
</g>
<!-- Article&#45;&gt;Comment -->
<g id="edge22" class="edge"><title>Article&#45;&gt;Comment</title>
<path fill="none" stroke="#f65d2d" d="M594.262,-641.111C592.467,-637.377 590.709,-633.668 589,-630 569.521,-588.192 550.02,-541.44 533.538,-500.134"/>
<ellipse fill="none" stroke="#f65d2d" cx="596.012" cy="-644.718" rx="4.00002" ry="4.00002"/>
<polygon fill="#f65d2d" stroke="#f65d2d" points="533.436,-499.879 533.925,-488.924 531.59,-495.232 529.743,-490.586 529.743,-490.586 529.743,-490.586 531.59,-495.232 525.561,-492.248 533.436,-499.879 533.436,-499.879"/>
<text text-anchor="middle" x="638" y="-618.3" font-family="Times,serif" font-size="14.00">comment_threads</text>
</g>
<!-- Visit -->
<g id="node8" class="node"><title>Visit</title>
<path fill="none" stroke="black" d="M124.5,-174.5C124.5,-174.5 337.5,-174.5 337.5,-174.5 343.5,-174.5 349.5,-180.5 349.5,-186.5 349.5,-186.5 349.5,-583.5 349.5,-583.5 349.5,-589.5 343.5,-595.5 337.5,-595.5 337.5,-595.5 124.5,-595.5 124.5,-595.5 118.5,-595.5 112.5,-589.5 112.5,-583.5 112.5,-583.5 112.5,-186.5 112.5,-186.5 112.5,-180.5 118.5,-174.5 124.5,-174.5"/>
<text text-anchor="middle" x="231" y="-580.3" font-family="Times,serif" font-size="14.00">Visit</text>
<polyline fill="none" stroke="black" points="112.5,-572.5 349.5,-572.5 "/>
<text text-anchor="start" x="120.5" y="-557.3" font-family="Times,serif" font-size="14.00">id :uuid</text>
<text text-anchor="start" x="120.5" y="-542.3" font-family="Times,serif" font-size="14.00">visitor_id :uuid</text>
<text text-anchor="start" x="120.5" y="-527.3" font-family="Times,serif" font-size="14.00">ip :character varying</text>
<text text-anchor="start" x="120.5" y="-512.3" font-family="Times,serif" font-size="14.00">user_agent :text</text>
<text text-anchor="start" x="120.5" y="-497.3" font-family="Times,serif" font-size="14.00">referrer :text</text>
<text text-anchor="start" x="120.5" y="-482.3" font-family="Times,serif" font-size="14.00">landing_page :text</text>
<text text-anchor="start" x="120.5" y="-467.3" font-family="Times,serif" font-size="14.00">user_id :integer</text>
<text text-anchor="start" x="120.5" y="-452.3" font-family="Times,serif" font-size="14.00">referring_domain :character varying</text>
<text text-anchor="start" x="120.5" y="-437.3" font-family="Times,serif" font-size="14.00">search_keyword :character varying</text>
<text text-anchor="start" x="120.5" y="-422.3" font-family="Times,serif" font-size="14.00">browser :character varying</text>
<text text-anchor="start" x="120.5" y="-407.3" font-family="Times,serif" font-size="14.00">os :character varying</text>
<text text-anchor="start" x="120.5" y="-392.3" font-family="Times,serif" font-size="14.00">device_type :character varying</text>
<text text-anchor="start" x="120.5" y="-377.3" font-family="Times,serif" font-size="14.00">screen_height :integer</text>
<text text-anchor="start" x="120.5" y="-362.3" font-family="Times,serif" font-size="14.00">screen_width :integer</text>
<text text-anchor="start" x="120.5" y="-347.3" font-family="Times,serif" font-size="14.00">country :character varying</text>
<text text-anchor="start" x="120.5" y="-332.3" font-family="Times,serif" font-size="14.00">region :character varying</text>
<text text-anchor="start" x="120.5" y="-317.3" font-family="Times,serif" font-size="14.00">city :character varying</text>
<text text-anchor="start" x="120.5" y="-302.3" font-family="Times,serif" font-size="14.00">postal_code :character varying</text>
<text text-anchor="start" x="120.5" y="-287.3" font-family="Times,serif" font-size="14.00">latitude :numeric</text>
<text text-anchor="start" x="120.5" y="-272.3" font-family="Times,serif" font-size="14.00">longitude :numeric</text>
<text text-anchor="start" x="120.5" y="-257.3" font-family="Times,serif" font-size="14.00">utm_source :character varying</text>
<text text-anchor="start" x="120.5" y="-242.3" font-family="Times,serif" font-size="14.00">utm_medium :character varying</text>
<text text-anchor="start" x="120.5" y="-227.3" font-family="Times,serif" font-size="14.00">utm_term :character varying</text>
<text text-anchor="start" x="120.5" y="-212.3" font-family="Times,serif" font-size="14.00">utm_content :character varying</text>
<text text-anchor="start" x="120.5" y="-197.3" font-family="Times,serif" font-size="14.00">utm_campaign :character varying</text>
<text text-anchor="start" x="120.5" y="-182.3" font-family="Times,serif" font-size="14.00">started_at :timestamp without time zone</text>
</g>
<!-- Article&#45;&gt;Visit -->
<g id="edge21" class="edge"><title>Article&#45;&gt;Visit</title>
<path fill="none" stroke="#b54b85" d="M532.794,-671.483C519.622,-663.102 506.221,-655.117 493,-648 436.749,-617.721 407.992,-636.997 359,-596 358.514,-595.593 358.029,-595.184 357.546,-594.773"/>
<ellipse fill="none" stroke="#b54b85" cx="536.294" cy="-673.735" rx="4.00002" ry="4.00002"/>
<polygon fill="#b54b85" stroke="#b54b85" points="357.305,-594.558 352.822,-584.551 353.568,-591.236 349.832,-587.913 349.832,-587.913 349.832,-587.913 353.568,-591.236 346.842,-591.276 357.305,-594.558 357.305,-594.558"/>
</g>
<!-- Article&#45;&gt;ActsAsTaggableOn::Tagging -->
<g id="edge24" class="edge"><title>Article&#45;&gt;ActsAsTaggableOn::Tagging</title>
<path fill="none" stroke="#1ff4d7" d="M791.517,-650.925C793.667,-649.904 795.828,-648.928 798,-648 885.369,-610.685 917.337,-645.905 1011,-630 1070.73,-619.858 1092.99,-630.194 1143,-596 1212.76,-548.301 1261.56,-457.246 1282.51,-412.356"/>
<ellipse fill="none" stroke="#1ff4d7" cx="787.832" cy="-652.773" rx="4.00002" ry="4.00002"/>
<polygon fill="#1ff4d7" stroke="#1ff4d7" points="1282.52,-412.35 1290.77,-405.127 1284.59,-407.803 1286.67,-403.255 1286.67,-403.255 1286.67,-403.255 1284.59,-407.803 1282.58,-401.384 1282.52,-412.35 1282.52,-412.35"/>
<text text-anchor="middle" x="1131" y="-618.3" font-family="Times,serif" font-size="14.00">taggings</text>
</g>
<!-- Article&#45;&gt;ActsAsTaggableOn::Tagging -->
<g id="edge26" class="edge"><title>Article&#45;&gt;ActsAsTaggableOn::Tagging</title>
<path fill="none" stroke="#3bdd60" d="M791.452,-651.32C793.625,-650.17 795.809,-649.062 798,-648 838.242,-628.491 854.023,-642.367 897,-630 915.401,-624.705 918.374,-618.437 937,-614 981.702,-603.353 1103.06,-618.724 1143,-596 1217,-553.899 1264.21,-458.98 1283.73,-412.565"/>
<ellipse fill="none" stroke="#3bdd60" cx="787.603" cy="-653.447" rx="4.00002" ry="4.00002"/>
<polygon fill="#3bdd60" stroke="#3bdd60" points="1283.78,-412.425 1291.74,-404.878 1285.68,-407.799 1287.57,-403.172 1287.57,-403.172 1287.57,-403.172 1285.68,-407.799 1283.41,-401.466 1283.78,-412.425 1283.78,-412.425"/>
<text text-anchor="middle" x="972" y="-618.3" font-family="Times,serif" font-size="14.00">tag_taggings</text>
</g>
<!-- Article&#45;&gt;ActsAsTaggableOn::Tag -->
<g id="edge25" class="edge"><title>Article&#45;&gt;ActsAsTaggableOn::Tag</title>
<path fill="none" stroke="#42f25a" d="M791.965,-653.117C793.988,-651.396 796.001,-649.69 798,-648 816.342,-632.496 819.96,-627.236 840,-614 854.267,-604.577 860.926,-607.019 874,-596 939.768,-540.57 995.809,-454.224 1021.3,-411.591"/>
<polygon fill="#42f25a" stroke="#42f25a" points="791.722,-653.324 781.194,-656.392 787.919,-656.57 784.116,-659.815 784.116,-659.815 784.116,-659.815 787.919,-656.57 787.037,-663.238 791.722,-653.324 791.722,-653.324"/>
<polygon fill="#42f25a" stroke="#42f25a" points="1021.33,-411.551 1030.29,-405.231 1023.87,-407.246 1026.41,-402.942 1026.41,-402.942 1026.41,-402.942 1023.87,-407.246 1022.54,-400.653 1021.33,-411.551 1021.33,-411.551"/>
<text text-anchor="middle" x="866.5" y="-618.3" font-family="Times,serif" font-size="14.00">base_tags</text>
</g>
<!-- Article&#45;&gt;ActsAsTaggableOn::Tag -->
<g id="edge27" class="edge"><title>Article&#45;&gt;ActsAsTaggableOn::Tag</title>
<path fill="none" stroke="#4562b5" d="M756.58,-641.503C767.988,-631.155 780.176,-621.727 793,-614 824.587,-594.967 842.877,-615.782 874,-596 947.313,-549.401 1000.55,-457.436 1023.49,-412.276"/>
<polygon fill="#4562b5" stroke="#4562b5" points="756.492,-641.585 746.12,-645.144 752.845,-645.006 749.198,-648.426 749.198,-648.426 749.198,-648.426 752.845,-645.006 752.277,-651.709 756.492,-641.585 756.492,-641.585"/>
<polygon fill="#4562b5" stroke="#4562b5" points="1023.58,-412.08 1032.07,-405.134 1025.81,-407.604 1028.04,-403.128 1028.04,-403.128 1028.04,-403.128 1025.81,-407.604 1024.01,-401.122 1023.58,-412.08 1023.58,-412.08"/>
<text text-anchor="middle" x="804" y="-618.3" font-family="Times,serif" font-size="14.00">tags</text>
</g>
<!-- Article&#45;&gt;ActsAsVotable::Vote -->
<g id="edge23" class="edge"><title>Article&#45;&gt;ActsAsVotable::Vote</title>
<path fill="none" stroke="#fd7bb1" d="M687.887,-640.32C690.152,-631.377 692.528,-622.531 695,-614 716.575,-539.542 750.46,-454.494 767.864,-412.428"/>
<ellipse fill="none" stroke="#fd7bb1" cx="686.892" cy="-644.317" rx="4.00001" ry="4.00001"/>
<polygon fill="#fd7bb1" stroke="#fd7bb1" points="767.876,-412.4 775.872,-404.896 769.797,-407.784 771.718,-403.168 771.718,-403.168 771.718,-403.168 769.797,-407.784 767.563,-401.439 767.876,-412.4 767.876,-412.4"/>
<text text-anchor="middle" x="721" y="-618.3" font-family="Times,serif" font-size="14.00">votes_for</text>
</g>
<!-- Visit&#45;&gt;Ahoy::Event -->
<g id="edge29" class="edge"><title>Visit&#45;&gt;Ahoy::Event</title>
<path fill="none" stroke="#360782" d="M162.023,-166.25C158.144,-154.003 154.423,-142.258 150.969,-131.354"/>
<ellipse fill="none" stroke="#360782" cx="163.324" cy="-170.355" rx="4.00001" ry="4.00001"/>
<polygon fill="#360782" stroke="#360782" points="150.895,-131.119 152.165,-120.227 149.385,-126.353 147.875,-121.586 147.875,-121.586 147.875,-121.586 149.385,-126.353 143.585,-122.945 150.895,-131.119 150.895,-131.119"/>
<text text-anchor="middle" x="190" y="-144.3" font-family="Times,serif" font-size="14.00">ahoy_events</text>
</g>
<!-- ActiveRecord::Base -->
<g id="node12" class="node"><title>ActiveRecord::Base</title>
<ellipse fill="none" stroke="black" cx="312" cy="-1443" rx="81.3646" ry="18"/>
<text text-anchor="middle" x="312" y="-1439.3" font-family="Times,serif" font-size="14.00">ActiveRecord::Base</text>
</g>
<!-- ActiveRecord::Base&#45;&gt;User -->
<g id="edge13" class="edge"><title>ActiveRecord::Base&#45;&gt;User</title>
<path fill="none" stroke="black" d="M389.857,-1437.69C457.48,-1431.86 557,-1418.14 638,-1386 708.722,-1357.94 779.939,-1314.58 840.085,-1272.53"/>
</g>
<!-- ActiveRecord::Base&#45;&gt;Ahoy::Event -->
<g id="edge14" class="edge"><title>ActiveRecord::Base&#45;&gt;Ahoy::Event</title>
<path fill="none" stroke="black" d="M276.805,-1426.59C260.024,-1419.43 239.596,-1410.97 221,-1404 170.991,-1385.25 140.461,-1407.63 107,-1366 45.9602,-1290.07 84,-1245.43 84,-1148 84,-1148 84,-1148 84,-384 84,-290.244 89.3146,-266.598 104,-174 106.715,-156.881 110.472,-138.462 114.249,-121.604"/>
</g>
<!-- ActiveRecord::Base&#45;&gt;Identity -->
<g id="edge15" class="edge"><title>ActiveRecord::Base&#45;&gt;Identity</title>
<path fill="none" stroke="black" d="M311.658,-1424.62C310.58,-1359.23 308.544,-1121.82 331,-928 334.796,-895.234 341.679,-859.105 347.997,-829.675"/>
</g>
<!-- ActiveRecord::Base&#45;&gt;Category -->
<g id="edge17" class="edge"><title>ActiveRecord::Base&#45;&gt;Category</title>
<path fill="none" stroke="black" d="M320.713,-1424.92C343.504,-1380.25 405.452,-1258.83 439.253,-1192.58"/>
</g>
<!-- ActiveRecord::Base&#45;&gt;Comment -->
<g id="edge19" class="edge"><title>ActiveRecord::Base&#45;&gt;Comment</title>
<path fill="none" stroke="black" d="M307.372,-1424.9C279.832,-1321.62 141.719,-781.031 231,-648 264.989,-597.356 311.316,-635.252 358,-596 392.031,-567.386 420.084,-527.694 441.444,-490.513"/>
</g>
<!-- ActiveRecord::Base&#45;&gt;Article -->
<g id="edge28" class="edge"><title>ActiveRecord::Base&#45;&gt;Article</title>
<path fill="none" stroke="black" d="M378.634,-1432.69C452.604,-1420.91 565.257,-1398.22 593,-1366 706.09,-1234.68 701.329,-1022.32 684.134,-889.716"/>
</g>
<!-- ActiveRecord::Base&#45;&gt;Visit -->
<g id="edge30" class="edge"><title>ActiveRecord::Base&#45;&gt;Visit</title>
<path fill="none" stroke="black" d="M276.395,-1426.78C244.683,-1412.87 202.591,-1393.37 198,-1386 16.5892,-1094.77 173.362,-956.225 198,-614 198.438,-607.916 198.941,-601.748 199.499,-595.528"/>
</g>
</g>
</svg>
