<?xml version="1.0" encoding="UTF-8" standalone="no"?>
<!DOCTYPE svg PUBLIC "-//W3C//DTD SVG 1.1//EN"
 "http://www.w3.org/Graphics/SVG/1.1/DTD/svg11.dtd">
<!-- Generated by graphviz version 2.36.0 (20140111.2315)
 -->
<!-- Title: models_diagram Pages: 1 -->
<svg width="1374pt" height="410pt"
 viewBox="0.00 0.00 1374.00 410.00" xmlns="http://www.w3.org/2000/svg" xmlns:xlink="http://www.w3.org/1999/xlink">
<g id="graph0" class="graph" transform="scale(1 1) rotate(0) translate(4 406)">
<title>models_diagram</title>
<polygon fill="none" stroke="none" points="-4,4 -4,-406 1370,-406 1370,4 -4,4"/>
<!-- _diagram_info -->
<g id="node1" class="node"><title>_diagram_info</title>
<text text-anchor="start" x="8" y="-387.6" font-family="Times,serif" font-size="13.00">Models diagram</text>
<text text-anchor="start" x="8" y="-373.6" font-family="Times,serif" font-size="13.00">Date: May 08 2016 &#45; 16:14</text>
<text text-anchor="start" x="8" y="-359.6" font-family="Times,serif" font-size="13.00">Migration version: 20160503223424</text>
<text text-anchor="start" x="8" y="-345.6" font-family="Times,serif" font-size="13.00">Generated by RailRoady 1.4.2</text>
<text text-anchor="start" x="8" y="-331.6" font-family="Times,serif" font-size="13.00">http://railroady.prestonlee.com</text>
</g>
<!-- User -->
<g id="node2" class="node"><title>User</title>
<ellipse fill="none" stroke="black" cx="807" cy="-268" rx="26.949" ry="18"/>
<text text-anchor="middle" x="807" y="-264.3" font-family="Times,serif" font-size="14.00">User</text>
</g>
<!-- Identity -->
<g id="node4" class="node"><title>Identity</title>
<ellipse fill="none" stroke="black" cx="341" cy="-194" rx="38.0212" ry="18"/>
<text text-anchor="middle" x="341" y="-190.3" font-family="Times,serif" font-size="14.00">Identity</text>
</g>
<!-- User&#45;&gt;Identity -->
<g id="edge2" class="edge"><title>User&#45;&gt;Identity</title>
<path fill="none" stroke="#1fca94" d="M771.491,-266.256C684.889,-264.078 464.884,-256.256 396,-232 385.742,-228.388 375.563,-222.401 366.802,-216.284"/>
<ellipse fill="none" stroke="#1fca94" cx="775.689" cy="-266.358" rx="4" ry="4"/>
<polygon fill="#1fca94" stroke="#1fca94" points="366.611,-216.144 361.235,-206.586 362.587,-213.176 358.564,-210.208 358.564,-210.208 358.564,-210.208 362.587,-213.176 355.892,-213.829 366.611,-216.144 366.611,-216.144"/>
</g>
<!-- Comment -->
<g id="node6" class="node"><title>Comment</title>
<ellipse fill="none" stroke="black" cx="348" cy="-106" rx="46.2191" ry="18"/>
<text text-anchor="middle" x="348" y="-102.3" font-family="Times,serif" font-size="14.00">Comment</text>
</g>
<!-- User&#45;&gt;Comment -->
<g id="edge3" class="edge"><title>User&#45;&gt;Comment</title>
<path fill="none" stroke="#56894d" d="M771.455,-265.938C706.786,-263.032 566.375,-252.21 456,-212 423.87,-200.295 418.647,-191.171 388,-176 370.891,-167.531 359.446,-173.979 349,-158 344.434,-151.016 343.094,-142.265 343.223,-133.993"/>
<ellipse fill="none" stroke="#56894d" cx="775.702" cy="-266.116" rx="4" ry="4"/>
<polygon fill="#56894d" stroke="#56894d" points="343.23,-133.908 348.526,-124.306 343.635,-128.924 344.041,-123.941 344.041,-123.941 344.041,-123.941 343.635,-128.924 339.556,-123.576 343.23,-133.908 343.23,-133.908"/>
</g>
<!-- Article -->
<g id="node7" class="node"><title>Article</title>
<ellipse fill="none" stroke="black" cx="500" cy="-194" rx="35.1455" ry="18"/>
<text text-anchor="middle" x="500" y="-190.3" font-family="Times,serif" font-size="14.00">Article</text>
</g>
<!-- User&#45;&gt;Article -->
<g id="edge1" class="edge"><title>User&#45;&gt;Article</title>
<path fill="none" stroke="#60e32c" d="M771.635,-266.827C722.106,-265.533 629.965,-259.25 557,-232 546.279,-227.996 535.499,-221.714 526.244,-215.456"/>
<ellipse fill="none" stroke="#60e32c" cx="775.792" cy="-266.918" rx="4" ry="4"/>
<polygon fill="#60e32c" stroke="#60e32c" points="526.05,-215.318 520.491,-205.865 521.97,-212.428 517.89,-209.537 517.89,-209.537 517.89,-209.537 521.97,-212.428 515.289,-213.209 526.05,-215.318 526.05,-215.318"/>
</g>
<!-- ActsAsTaggableOn::Tagging -->
<g id="node9" class="node"><title>ActsAsTaggableOn::Tagging</title>
<ellipse fill="none" stroke="black" cx="1075" cy="-106" rx="114.085" ry="18"/>
<text text-anchor="middle" x="1075" y="-102.3" font-family="Times,serif" font-size="14.00">ActsAsTaggableOn::Tagging</text>
</g>
<!-- User&#45;&gt;ActsAsTaggableOn::Tagging -->
<g id="edge4" class="edge"><title>User&#45;&gt;ActsAsTaggableOn::Tagging</title>
<path fill="none" stroke="#276c4c" d="M842.075,-265.172C938.871,-259.753 1204.18,-242.243 1228,-212 1258.98,-172.667 1195.95,-142.392 1141.64,-124.674"/>
<ellipse fill="none" stroke="#276c4c" cx="838.044" cy="-265.394" rx="4" ry="4"/>
<polygon fill="#276c4c" stroke="#276c4c" points="1141.51,-124.632 1133.33,-117.328 1136.74,-123.126 1131.98,-121.619 1131.98,-121.619 1131.98,-121.619 1136.74,-123.126 1130.62,-125.91 1141.51,-124.632 1141.51,-124.632"/>
<text text-anchor="middle" x="1259" y="-190.3" font-family="Times,serif" font-size="14.00">taggings</text>
</g>
<!-- User&#45;&gt;ActsAsTaggableOn::Tagging -->
<g id="edge6" class="edge"><title>User&#45;&gt;ActsAsTaggableOn::Tagging</title>
<path fill="none" stroke="#16a983" d="M842.455,-265.718C948.559,-261.507 1258.01,-246.354 1286,-212 1325.89,-163.05 1241.01,-134.96 1167.29,-120.368"/>
<ellipse fill="none" stroke="#16a983" cx="838.289" cy="-265.881" rx="4" ry="4"/>
<polygon fill="#16a983" stroke="#16a983" points="1167.27,-120.363 1158.29,-114.064 1162.36,-119.423 1157.44,-118.484 1157.44,-118.484 1157.44,-118.484 1162.36,-119.423 1156.6,-122.904 1167.27,-120.363 1167.27,-120.363"/>
<text text-anchor="middle" x="1331" y="-190.3" font-family="Times,serif" font-size="14.00">tag_taggings</text>
</g>
<!-- User&#45;&gt;ActsAsTaggableOn::Tagging -->
<g id="edge8" class="edge"><title>User&#45;&gt;ActsAsTaggableOn::Tagging</title>
<path fill="none" stroke="#d20350" d="M841.475,-261.714C877.385,-254.908 934.017,-240.404 975,-212 1007.43,-189.523 1037.64,-155.205 1056.19,-131.974"/>
<ellipse fill="none" stroke="#d20350" cx="837.192" cy="-262.492" rx="4.00001" ry="4.00001"/>
<polygon fill="#d20350" stroke="#d20350" points="1056.3,-131.827 1066.02,-126.737 1059.39,-127.893 1062.48,-123.959 1062.48,-123.959 1062.48,-123.959 1059.39,-127.893 1058.93,-121.181 1056.3,-131.827 1056.3,-131.827"/>
<text text-anchor="middle" x="1054" y="-190.3" font-family="Times,serif" font-size="14.00">skill_taggings</text>
</g>
<!-- User&#45;&gt;ActsAsTaggableOn::Tagging -->
<g id="edge10" class="edge"><title>User&#45;&gt;ActsAsTaggableOn::Tagging</title>
<path fill="none" stroke="#11c7b5" d="M842.406,-265.683C912.332,-262.261 1064.16,-250.471 1096,-212 1114.33,-189.847 1102.84,-156.128 1090.88,-132.91"/>
<ellipse fill="none" stroke="#11c7b5" cx="838.293" cy="-265.875" rx="4" ry="4"/>
<polygon fill="#11c7b5" stroke="#11c7b5" points="1090.79,-132.74 1089.93,-121.807 1088.38,-128.354 1085.98,-123.969 1085.98,-123.969 1085.98,-123.969 1088.38,-128.354 1082.04,-126.13 1090.79,-132.74 1090.79,-132.74"/>
<text text-anchor="middle" x="1151.5" y="-190.3" font-family="Times,serif" font-size="14.00">interest_taggings</text>
</g>
<!-- ActsAsTaggableOn::Tag -->
<g id="node10" class="node"><title>ActsAsTaggableOn::Tag</title>
<ellipse fill="none" stroke="black" cx="807" cy="-106" rx="98.1881" ry="18"/>
<text text-anchor="middle" x="807" y="-102.3" font-family="Times,serif" font-size="14.00">ActsAsTaggableOn::Tag</text>
</g>
<!-- User&#45;&gt;ActsAsTaggableOn::Tag -->
<g id="edge5" class="edge"><title>User&#45;&gt;ActsAsTaggableOn::Tag</title>
<path fill="none" stroke="#c422ab" d="M803.841,-239.842C803.074,-219.783 805.569,-193.101 821,-176 842.232,-152.471 870.623,-183.08 890,-158 894.348,-152.373 893.932,-147.925 890,-142 885.623,-135.403 879.731,-130.047 873.094,-125.698"/>
<polygon fill="#c422ab" stroke="#c422ab" points="803.848,-239.943 800.025,-250.221 804.181,-244.932 804.515,-249.921 804.515,-249.921 804.515,-249.921 804.181,-244.932 809.005,-249.621 803.848,-239.943 803.848,-239.943"/>
<polygon fill="#c422ab" stroke="#c422ab" points="873.035,-125.665 866.577,-116.802 868.692,-123.188 864.348,-120.711 864.348,-120.711 864.348,-120.711 868.692,-123.188 862.119,-124.621 873.035,-125.665 873.035,-125.665"/>
<text text-anchor="middle" x="847.5" y="-190.3" font-family="Times,serif" font-size="14.00">base_tags</text>
</g>
<!-- User&#45;&gt;ActsAsTaggableOn::Tag -->
<g id="edge7" class="edge"><title>User&#45;&gt;ActsAsTaggableOn::Tag</title>
<path fill="none" stroke="#80b04c" d="M833.836,-248.539C846.944,-238.682 862.357,-225.759 874,-212 895.979,-186.026 924.6,-169.813 905,-142 899.65,-134.408 892.497,-128.454 884.481,-123.786"/>
<polygon fill="#80b04c" stroke="#80b04c" points="833.689,-248.647 822.961,-250.921 829.654,-251.6 825.619,-254.553 825.619,-254.553 825.619,-254.553 829.654,-251.6 828.276,-258.184 833.689,-248.647 833.689,-248.647"/>
<polygon fill="#80b04c" stroke="#80b04c" points="884.4,-123.745 877.529,-115.199 879.944,-121.477 875.488,-119.209 875.488,-119.209 875.488,-119.209 879.944,-121.477 873.447,-123.22 884.4,-123.745 884.4,-123.745"/>
<text text-anchor="middle" x="917" y="-190.3" font-family="Times,serif" font-size="14.00">tags</text>
</g>
<!-- User&#45;&gt;ActsAsTaggableOn::Tag -->
<g id="edge9" class="edge"><title>User&#45;&gt;ActsAsTaggableOn::Tag</title>
<path fill="none" stroke="#4fb10f" d="M843.384,-261.874C872.842,-255.599 912.529,-241.84 932,-212 949.174,-185.681 944.118,-164.326 922,-142 913.192,-133.109 902.2,-126.463 890.531,-121.498"/>
<polygon fill="#4fb10f" stroke="#4fb10f" points="843.259,-261.899 832.587,-259.378 838.35,-262.847 833.441,-263.796 833.441,-263.796 833.441,-263.796 838.35,-262.847 834.295,-268.214 843.259,-261.899 843.259,-261.899"/>
<polygon fill="#4fb10f" stroke="#4fb10f" points="890.393,-121.445 882.667,-113.664 885.724,-119.655 881.056,-117.866 881.056,-117.866 881.056,-117.866 885.724,-119.655 879.445,-122.067 890.393,-121.445 890.393,-121.445"/>
<text text-anchor="middle" x="956.5" y="-190.3" font-family="Times,serif" font-size="14.00">skills</text>
</g>
<!-- User&#45;&gt;ActsAsTaggableOn::Tag -->
<g id="edge11" class="edge"><title>User&#45;&gt;ActsAsTaggableOn::Tag</title>
<path fill="none" stroke="#a29268" d="M780.613,-247.666C750.222,-222.954 707.337,-178.949 731,-142 734.842,-136 740.002,-131.015 745.833,-126.875"/>
<polygon fill="#a29268" stroke="#a29268" points="780.931,-247.916 786.004,-257.638 784.859,-251.009 788.788,-254.102 788.788,-254.102 788.788,-254.102 784.859,-251.009 791.572,-250.566 780.931,-247.916 780.931,-247.916"/>
<polygon fill="#a29268" stroke="#a29268" points="746.254,-126.617 757.132,-125.233 750.518,-124.006 754.782,-121.395 754.782,-121.395 754.782,-121.395 750.518,-124.006 752.432,-117.558 746.254,-126.617 746.254,-126.617"/>
<text text-anchor="middle" x="766" y="-190.3" font-family="Times,serif" font-size="14.00">interests</text>
</g>
<!-- ActsAsVotable::Vote -->
<g id="node11" class="node"><title>ActsAsVotable::Vote</title>
<ellipse fill="none" stroke="black" cx="566" cy="-106" rx="86.1637" ry="18"/>
<text text-anchor="middle" x="566" y="-102.3" font-family="Times,serif" font-size="14.00">ActsAsVotable::Vote</text>
</g>
<!-- User&#45;&gt;ActsAsVotable::Vote -->
<g id="edge12" class="edge"><title>User&#45;&gt;ActsAsVotable::Vote</title>
<path fill="none" stroke="#e00cc0" d="M773.613,-259.129C725.437,-246.11 636.564,-215.617 585,-158 578.997,-151.293 574.831,-142.515 571.966,-134.136"/>
<ellipse fill="none" stroke="#e00cc0" cx="777.682" cy="-260.198" rx="4.00001" ry="4.00001"/>
<polygon fill="#e00cc0" stroke="#e00cc0" points="571.89,-133.877 573.398,-123.016 570.485,-129.079 569.08,-124.28 569.08,-124.28 569.08,-124.28 570.485,-129.079 564.761,-125.545 571.89,-133.877 571.89,-133.877"/>
<text text-anchor="middle" x="666.5" y="-190.3" font-family="Times,serif" font-size="14.00">votes</text>
</g>
<!-- Ahoy::Event -->
<g id="node3" class="node"><title>Ahoy::Event</title>
<ellipse fill="none" stroke="black" cx="221" cy="-18" rx="55.3436" ry="18"/>
<text text-anchor="middle" x="221" y="-14.3" font-family="Times,serif" font-size="14.00">Ahoy::Event</text>
</g>
<!-- Category -->
<g id="node5" class="node"><title>Category</title>
<ellipse fill="none" stroke="black" cx="384" cy="-268" rx="42.3456" ry="18"/>
<text text-anchor="middle" x="384" y="-264.3" font-family="Times,serif" font-size="14.00">Category</text>
</g>
<!-- Category&#45;&gt;Article -->
<g id="edge16" class="edge"><title>Category&#45;&gt;Article</title>
<path fill="none" stroke="#fe7388" d="M413.775,-248.519C430.941,-237.864 452.47,-224.501 469.721,-213.794"/>
<ellipse fill="none" stroke="#fe7388" cx="410.316" cy="-250.666" rx="4.00002" ry="4.00002"/>
<polygon fill="#fe7388" stroke="#fe7388" points="469.81,-213.738 480.68,-212.288 474.059,-211.102 478.307,-208.465 478.307,-208.465 478.307,-208.465 474.059,-211.102 475.934,-204.641 469.81,-213.738 469.81,-213.738"/>
</g>
<!-- Comment&#45;&gt;Comment -->
<g id="edge18" class="edge"><title>Comment&#45;&gt;Comment</title>
<path fill="none" stroke="#9cc4f1" d="M397.4,-113.731C406.012,-112.698 412,-110.121 412,-106 412,-102.254 407.051,-99.7832 399.681,-98.5887"/>
<ellipse fill="none" stroke="#9cc4f1" cx="393.234" cy="-113.992" rx="4" ry="4"/>
<polygon fill="#9cc4f1" stroke="#9cc4f1" points="399.21,-98.5513 389.599,-93.2722 394.226,-98.1547 389.242,-97.7581 389.242,-97.7581 389.242,-97.7581 394.226,-98.1547 388.885,-102.244 399.21,-98.5513 399.21,-98.5513"/>
<text text-anchor="middle" x="434.5" y="-102.3" font-family="Times,serif" font-size="14.00">children</text>
</g>
<!-- Article&#45;&gt;Comment -->
<g id="edge20" class="edge"><title>Article&#45;&gt;Comment</title>
<path fill="none" stroke="#01a703" d="M459.887,-184.744C422.37,-176.693 371.069,-164.71 364,-158 357.421,-151.755 353.533,-142.844 351.241,-134.212"/>
<ellipse fill="none" stroke="#01a703" cx="464.225" cy="-185.667" rx="4.00001" ry="4.00001"/>
<polygon fill="#01a703" stroke="#01a703" points="351.234,-134.18 353.625,-123.478 350.226,-129.282 349.217,-124.385 349.217,-124.385 349.217,-124.385 350.226,-129.282 344.81,-125.293 351.234,-134.18 351.234,-134.18"/>
</g>
<!-- Article&#45;&gt;Comment -->
<g id="edge22" class="edge"><title>Article&#45;&gt;Comment</title>
<path fill="none" stroke="#adfe4b" d="M460.339,-184.29C440.326,-178.746 416.274,-170.258 397,-158 385.83,-150.896 375.378,-140.73 367.02,-131.341"/>
<ellipse fill="none" stroke="#adfe4b" cx="464.209" cy="-185.317" rx="4.00001" ry="4.00001"/>
<polygon fill="#adfe4b" stroke="#adfe4b" points="367.01,-131.331 363.946,-120.802 363.766,-127.526 360.522,-123.722 360.522,-123.722 360.522,-123.722 363.766,-127.526 357.098,-126.642 367.01,-131.331 367.01,-131.331"/>
<text text-anchor="middle" x="446" y="-146.3" font-family="Times,serif" font-size="14.00">comment_threads</text>
</g>
<!-- Visit -->
<g id="node8" class="node"><title>Visit</title>
<ellipse fill="none" stroke="black" cx="255" cy="-106" rx="27.4223" ry="18"/>
<text text-anchor="middle" x="255" y="-102.3" font-family="Times,serif" font-size="14.00">Visit</text>
</g>
<!-- Article&#45;&gt;Visit -->
<g id="edge21" class="edge"><title>Article&#45;&gt;Visit</title>
<path fill="none" stroke="#0fc1c9" d="M458.874,-186.561C428.003,-180.992 385.033,-171.663 349,-158 325.79,-149.199 301.185,-135.681 282.972,-124.773"/>
<ellipse fill="none" stroke="#0fc1c9" cx="462.907" cy="-187.271" rx="4.00001" ry="4.00001"/>
<polygon fill="#0fc1c9" stroke="#0fc1c9" points="282.61,-124.552 276.415,-115.503 278.341,-121.949 274.072,-119.345 274.072,-119.345 274.072,-119.345 278.341,-121.949 271.729,-123.187 282.61,-124.552 282.61,-124.552"/>
</g>
<!-- Article&#45;&gt;ActsAsTaggableOn::Tagging -->
<g id="edge24" class="edge"><title>Article&#45;&gt;ActsAsTaggableOn::Tagging</title>
<path fill="none" stroke="#f29511" d="M534.7,-179.687C539.451,-178.241 544.308,-176.951 549,-176 667.738,-151.929 700.903,-173.96 821,-158 883.803,-149.654 954.393,-135.052 1005.19,-123.605"/>
<ellipse fill="none" stroke="#f29511" cx="530.657" cy="-181.001" rx="4.00001" ry="4.00001"/>
<polygon fill="#f29511" stroke="#f29511" points="1005.32,-123.575 1016.07,-125.749 1010.2,-122.468 1015.07,-121.361 1015.07,-121.361 1015.07,-121.361 1010.2,-122.468 1014.08,-116.972 1005.32,-123.575 1005.32,-123.575"/>
<text text-anchor="middle" x="935" y="-146.3" font-family="Times,serif" font-size="14.00">taggings</text>
</g>
<!-- Article&#45;&gt;ActsAsTaggableOn::Tagging -->
<g id="edge26" class="edge"><title>Article&#45;&gt;ActsAsTaggableOn::Tagging</title>
<path fill="none" stroke="#a9dc23" d="M534.916,-179.842C539.605,-178.384 544.388,-177.049 549,-176 617.916,-160.322 638.468,-175.278 707,-158 725.566,-153.319 728.417,-146.615 747,-142 748.394,-141.654 877.075,-127.973 972.822,-117.821"/>
<ellipse fill="none" stroke="#a9dc23" cx="530.961" cy="-181.139" rx="4.00001" ry="4.00001"/>
<polygon fill="#a9dc23" stroke="#a9dc23" points="972.912,-117.811 983.33,-121.232 977.884,-117.284 982.856,-116.757 982.856,-116.757 982.856,-116.757 977.884,-117.284 982.381,-112.282 972.912,-117.811 972.912,-117.811"/>
<text text-anchor="middle" x="782" y="-146.3" font-family="Times,serif" font-size="14.00">tag_taggings</text>
</g>
<!-- Article&#45;&gt;ActsAsTaggableOn::Tag -->
<g id="edge25" class="edge"><title>Article&#45;&gt;ActsAsTaggableOn::Tag</title>
<path fill="none" stroke="#35390c" d="M537.243,-179.615C541.194,-178.334 545.167,-177.104 549,-176 583.189,-166.155 594.475,-172.419 627,-158 638.384,-152.953 638.597,-147.004 650,-142 672.375,-132.18 697.796,-124.984 721.567,-119.765"/>
<polygon fill="#35390c" stroke="#35390c" points="537.044,-179.682 526.133,-178.591 532.303,-181.27 527.562,-182.858 527.562,-182.858 527.562,-182.858 532.303,-181.27 528.992,-187.125 537.044,-179.682 537.044,-179.682"/>
<polygon fill="#35390c" stroke="#35390c" points="721.854,-119.705 732.566,-122.052 726.747,-118.677 731.64,-117.648 731.64,-117.648 731.64,-117.648 726.747,-118.677 730.714,-113.244 721.854,-119.705 721.854,-119.705"/>
<text text-anchor="middle" x="676.5" y="-146.3" font-family="Times,serif" font-size="14.00">base_tags</text>
</g>
<!-- Article&#45;&gt;ActsAsTaggableOn::Tag -->
<g id="edge27" class="edge"><title>Article&#45;&gt;ActsAsTaggableOn::Tag</title>
<path fill="none" stroke="#fbb908" d="M530.38,-174.636C549.914,-163.603 576.194,-150.164 601,-142 636.828,-130.209 677.534,-122.222 713.246,-116.894"/>
<polygon fill="#fbb908" stroke="#fbb908" points="530.307,-174.678 519.395,-175.766 525.973,-177.172 521.64,-179.667 521.64,-179.667 521.64,-179.667 525.973,-177.172 523.885,-183.567 530.307,-174.678 530.307,-174.678"/>
<polygon fill="#fbb908" stroke="#fbb908" points="713.28,-116.889 723.821,-119.915 718.229,-116.175 723.178,-115.461 723.178,-115.461 723.178,-115.461 718.229,-116.175 722.535,-111.007 713.28,-116.889 713.28,-116.889"/>
<text text-anchor="middle" x="612" y="-146.3" font-family="Times,serif" font-size="14.00">tags</text>
</g>
<!-- Article&#45;&gt;ActsAsVotable::Vote -->
<g id="edge23" class="edge"><title>Article&#45;&gt;ActsAsVotable::Vote</title>
<path fill="none" stroke="#63aefa" d="M497.927,-167.598C498.35,-158.894 500.169,-149.474 505,-142 508.523,-136.549 513.213,-131.853 518.434,-127.833"/>
<ellipse fill="none" stroke="#63aefa" cx="497.911" cy="-171.637" rx="4" ry="4"/>
<polygon fill="#63aefa" stroke="#63aefa" points="518.694,-127.657 529.5,-125.791 522.838,-124.859 526.982,-122.061 526.982,-122.061 526.982,-122.061 522.838,-124.859 524.464,-118.332 518.694,-127.657 518.694,-127.657"/>
<text text-anchor="middle" x="531" y="-146.3" font-family="Times,serif" font-size="14.00">votes_for</text>
</g>
<!-- Visit&#45;&gt;Ahoy::Event -->
<g id="edge29" class="edge"><title>Visit&#45;&gt;Ahoy::Event</title>
<path fill="none" stroke="#4ffaf5" d="M245.476,-80.9093C241.118,-69.8857 235.941,-56.7918 231.473,-45.4913"/>
<ellipse fill="none" stroke="#4ffaf5" cx="246.974" cy="-84.6985" rx="4.00001" ry="4.00001"/>
<polygon fill="#4ffaf5" stroke="#4ffaf5" points="231.445,-45.419 231.953,-34.4649 229.606,-40.7692 227.768,-36.1194 227.768,-36.1194 227.768,-36.1194 229.606,-40.7692 223.583,-37.7739 231.445,-45.419 231.445,-45.419"/>
<text text-anchor="middle" x="275" y="-58.3" font-family="Times,serif" font-size="14.00">ahoy_events</text>
</g>
<!-- ActiveRecord::Base -->
<g id="node12" class="node"><title>ActiveRecord::Base</title>
<ellipse fill="none" stroke="black" cx="313" cy="-363" rx="81.3646" ry="18"/>
<text text-anchor="middle" x="313" y="-359.3" font-family="Times,serif" font-size="14.00">ActiveRecord::Base</text>
</g>
<!-- ActiveRecord::Base&#45;&gt;User -->
<g id="edge13" class="edge"><title>ActiveRecord::Base&#45;&gt;User</title>
<path fill="none" stroke="black" d="M372.588,-350.782C480.753,-330.419 705.239,-288.157 781.219,-273.854"/>
</g>
<!-- ActiveRecord::Base&#45;&gt;Ahoy::Event -->
<g id="edge14" class="edge"><title>ActiveRecord::Base&#45;&gt;Ahoy::Event</title>
<path fill="none" stroke="black" d="M271.521,-347.506C238.925,-333.163 199,-307.696 199,-269 199,-269 199,-269 199,-105 199,-80.496 207.487,-53.2554 213.918,-36.1302"/>
</g>
<!-- ActiveRecord::Base&#45;&gt;Identity -->
<g id="edge15" class="edge"><title>ActiveRecord::Base&#45;&gt;Identity</title>
<path fill="none" stroke="black" d="M315.891,-344.757C321.256,-312.756 332.698,-244.518 338.083,-212.399"/>
</g>
<!-- ActiveRecord::Base&#45;&gt;Category -->
<g id="edge17" class="edge"><title>ActiveRecord::Base&#45;&gt;Category</title>
<path fill="none" stroke="black" d="M326.022,-344.942C338.993,-327.952 358.765,-302.054 371.536,-285.326"/>
</g>
<!-- ActiveRecord::Base&#45;&gt;Comment -->
<g id="edge19" class="edge"><title>ActiveRecord::Base&#45;&gt;Comment</title>
<path fill="none" stroke="black" d="M306.585,-345.031C294.969,-311.652 273.474,-235.533 294,-176 301.19,-155.148 317.559,-135.781 330.402,-122.907"/>
</g>
<!-- ActiveRecord::Base&#45;&gt;Article -->
<g id="edge28" class="edge"><title>ActiveRecord::Base&#45;&gt;Article</title>
<path fill="none" stroke="black" d="M345.179,-346.468C371.258,-332.874 407.983,-311.363 435,-286 458.922,-263.543 479.587,-231.078 490.87,-211.605"/>
</g>
<!-- ActiveRecord::Base&#45;&gt;Visit -->
<g id="edge30" class="edge"><title>ActiveRecord::Base&#45;&gt;Visit</title>
<path fill="none" stroke="black" d="M305.913,-344.86C301.344,-333.784 295.291,-319.052 290,-306 286.404,-297.128 284.508,-295.239 282,-286 266.19,-227.766 258.907,-156.196 256.254,-124.05"/>
</g>
</g>
</svg>
